<svg xmlns="http://www.w3.org/2000/svg" xmlns:xlink="http://www.w3.org/1999/xlink" width="147" zoomAndPan="magnify" viewBox="0 0 110.25 109.499997" height="146" preserveAspectRatio="xMidYMid meet" version="1.0"><defs><clipPath id="160c84bb71"><path d="M 0 0.121094 L 109.503906 0.121094 L 109.503906 108.136719 L 0 108.136719 Z M 0 0.121094 " clip-rule="nonzero"/></clipPath></defs><g clip-path="url(#160c84bb71)"><path fill="#0087ff" d="M 109.226562 64.222656 C 109.222656 64.214844 109.222656 64.207031 109.222656 64.199219 C 109.21875 64.1875 109.21875 64.179688 109.214844 64.171875 C 109.191406 64.0625 109.15625 63.953125 109.113281 63.851562 L 89.695312 18.796875 C 89.609375 18.59375 89.480469 18.414062 89.332031 18.261719 C 89.007812 17.824219 88.488281 17.542969 87.90625 17.542969 L 61.820312 17.542969 C 61.78125 17.542969 61.746094 17.546875 61.707031 17.546875 L 61.707031 6.214844 C 61.707031 2.855469 58.972656 0.121094 55.613281 0.121094 C 52.253906 0.121094 49.523438 2.855469 49.523438 6.214844 L 49.523438 17.542969 L 21.503906 17.542969 C 21.449219 17.542969 21.394531 17.546875 21.339844 17.550781 C 21.320312 17.550781 21.300781 17.542969 21.28125 17.542969 C 20.539062 17.515625 19.863281 17.941406 19.574219 18.621094 L 0.15625 63.675781 C 0.113281 63.777344 0.078125 63.886719 0.0546875 63.996094 C 0.0507812 64.003906 0.0507812 64.011719 0.046875 64.019531 C 0.046875 64.027344 0.046875 64.035156 0.0429688 64.042969 C 0.0234375 64.15625 0.0117188 64.269531 0.0117188 64.378906 C 0.0117188 64.378906 0.0117188 64.378906 0.0117188 64.382812 C 0.0117188 69.421875 2.015625 74.070312 5.65625 77.464844 C 9.214844 80.785156 14 82.609375 19.132812 82.609375 C 24.265625 82.609375 29.054688 80.785156 32.613281 77.464844 C 36.253906 74.070312 38.257812 69.421875 38.257812 64.382812 C 38.257812 64.375 38.257812 64.371094 38.257812 64.367188 C 38.257812 64.328125 38.253906 64.289062 38.25 64.246094 C 38.25 64.226562 38.25 64.203125 38.246094 64.183594 C 38.242188 64.152344 38.238281 64.121094 38.230469 64.089844 C 38.226562 64.058594 38.222656 64.03125 38.214844 64 C 38.210938 63.980469 38.203125 63.957031 38.199219 63.933594 C 38.1875 63.898438 38.179688 63.859375 38.167969 63.824219 C 38.164062 63.820312 38.164062 63.8125 38.164062 63.808594 L 23.695312 21.105469 L 49.523438 21.105469 L 49.523438 96.921875 L 22.738281 96.921875 C 20.933594 96.921875 19.46875 98.453125 19.46875 100.332031 L 19.46875 104.789062 C 19.46875 106.671875 20.933594 108.203125 22.738281 108.203125 L 88.488281 108.203125 C 90.292969 108.203125 91.761719 106.671875 91.761719 104.789062 L 91.761719 100.332031 C 91.761719 98.453125 90.292969 96.921875 88.488281 96.921875 L 61.707031 96.921875 L 61.707031 21.101562 C 61.742188 21.105469 61.78125 21.105469 61.820312 21.105469 L 85.632812 21.105469 L 71.105469 63.984375 C 71.105469 63.992188 71.105469 63.996094 71.101562 64 C 71.089844 64.039062 71.082031 64.074219 71.070312 64.113281 C 71.066406 64.132812 71.058594 64.15625 71.054688 64.175781 C 71.046875 64.207031 71.042969 64.238281 71.039062 64.269531 C 71.03125 64.300781 71.027344 64.328125 71.023438 64.359375 C 71.023438 64.382812 71.019531 64.402344 71.019531 64.425781 C 71.015625 64.464844 71.011719 64.503906 71.011719 64.542969 C 71.011719 64.546875 71.011719 64.554688 71.011719 64.558594 C 71.011719 69.601562 73.015625 74.246094 76.660156 77.640625 C 80.214844 80.960938 85.003906 82.789062 90.136719 82.789062 C 95.269531 82.789062 100.054688 80.960938 103.613281 77.640625 C 107.253906 74.246094 109.257812 69.601562 109.257812 64.558594 C 109.257812 64.445312 109.246094 64.332031 109.226562 64.222656 Z M 21.011719 24.289062 L 33.988281 62.597656 L 4.503906 62.597656 Z M 30.179688 74.859375 C 27.285156 77.558594 23.363281 79.046875 19.132812 79.046875 C 14.90625 79.046875 10.984375 77.558594 8.089844 74.859375 C 5.613281 72.550781 4.082031 69.511719 3.679688 66.164062 L 34.585938 66.164062 C 34.1875 69.511719 32.65625 72.550781 30.179688 74.859375 Z M 88.195312 104.636719 L 23.03125 104.636719 L 23.03125 100.484375 L 88.195312 100.484375 Z M 53.085938 96.921875 L 53.085938 6.214844 C 53.085938 4.820312 54.21875 3.6875 55.613281 3.6875 C 57.007812 3.6875 58.140625 4.820312 58.140625 6.214844 L 58.140625 96.921875 Z M 104.765625 62.777344 L 75.28125 62.777344 L 88.257812 24.46875 Z M 101.179688 75.035156 C 98.285156 77.734375 94.363281 79.222656 90.136719 79.222656 C 85.90625 79.222656 81.984375 77.734375 79.089844 75.035156 C 76.613281 72.726562 75.082031 69.6875 74.683594 66.339844 L 105.589844 66.339844 C 105.1875 69.6875 103.65625 72.726562 101.179688 75.035156 Z M 101.179688 75.035156 " fill-opacity="1" fill-rule="nonzero"/></g></svg>