<svg xmlns="http://www.w3.org/2000/svg" xmlns:xlink="http://www.w3.org/1999/xlink" width="633" zoomAndPan="magnify" viewBox="0 0 474.75 476.999988" height="636" preserveAspectRatio="xMidYMid meet" version="1.0"><defs><clipPath id="26b93e06ed"><path d="M 154 2 L 473.75 2 L 473.75 74 L 154 74 Z M 154 2 " clip-rule="nonzero"/></clipPath><clipPath id="5c73cd843e"><path d="M 155 5 L 473.75 5 L 473.75 83 L 155 83 Z M 155 5 " clip-rule="nonzero"/></clipPath><clipPath id="9af4e31172"><path d="M 181 85 L 473.75 85 L 473.75 87 L 181 87 Z M 181 85 " clip-rule="nonzero"/></clipPath><clipPath id="baf3fb3d5e"><path d="M 460 69 L 473.75 69 L 473.75 83 L 460 83 Z M 460 69 " clip-rule="nonzero"/></clipPath><clipPath id="aa0803ba06"><path d="M 459 70 L 473.75 70 L 473.75 83 L 459 83 Z M 459 70 " clip-rule="nonzero"/></clipPath><clipPath id="84dc24e270"><path d="M 98 470 L 111 470 L 111 476.125 L 98 476.125 Z M 98 470 " clip-rule="nonzero"/></clipPath><clipPath id="bd02913485"><path d="M 199 470 L 212 470 L 212 476.125 L 199 476.125 Z M 199 470 " clip-rule="nonzero"/></clipPath><clipPath id="51c8dc789a"><path d="M 121 470 L 189 470 L 189 476.125 L 121 476.125 Z M 121 470 " clip-rule="nonzero"/></clipPath><clipPath id="fc3682b637"><path d="M 0 81 L 473.75 81 L 473.75 85 L 0 85 Z M 0 81 " clip-rule="nonzero"/></clipPath><clipPath id="c54545815a"><path d="M 167 56 L 473.75 56 L 473.75 73 L 167 73 Z M 167 56 " clip-rule="nonzero"/></clipPath><clipPath id="14433a8dac"><path d="M 150 0.125 L 160 0.125 L 160 2 L 150 2 Z M 150 0.125 " clip-rule="nonzero"/></clipPath><clipPath id="8fc8ce8dd9"><path d="M 156 0.125 L 163 0.125 L 163 6 L 156 6 Z M 156 0.125 " clip-rule="nonzero"/></clipPath><clipPath id="d987d2249a"><path d="M 147 0.125 L 154 0.125 L 154 6 L 147 6 Z M 147 0.125 " clip-rule="nonzero"/></clipPath></defs><path fill="#ee952d" d="M 144.914062 313.28125 L 147.804688 313.28125 L 164.597656 328.644531 L 161.707031 328.644531 Z M 144.914062 313.28125 " fill-opacity="1" fill-rule="evenodd"/><path fill="#ee952d" d="M 164.578125 313.289062 L 161.6875 313.289062 L 144.945312 328.644531 L 147.835938 328.644531 Z M 164.578125 313.289062 " fill-opacity="1" fill-rule="evenodd"/><path fill="#1a1a1a" d="M 154.765625 6.804688 L 2.65625 76.03125 L 2.207031 75.039062 L 154.3125 5.816406 Z M 154.765625 6.804688 " fill-opacity="1" fill-rule="evenodd"/><path fill="#1a1a1a" d="M 2.195312 75.042969 L 154.074219 2.429688 L 154.542969 3.410156 L 2.667969 76.027344 Z M 2.195312 75.042969 " fill-opacity="1" fill-rule="evenodd"/><path fill="#92aa9d" d="M 2.660156 78.464844 C 4 78.464844 5.097656 77.371094 5.097656 76.03125 C 5.097656 74.6875 4 73.589844 2.660156 73.589844 C 1.316406 73.589844 0.21875 74.6875 0.21875 76.03125 C 0.21875 77.371094 1.316406 78.464844 2.660156 78.464844 Z M 2.660156 78.464844 " fill-opacity="1" fill-rule="evenodd"/><g clip-path="url(#26b93e06ed)"><path fill="#1a1a1a" d="M 154.546875 3.453125 L 154.765625 2.386719 L 496.835938 72.402344 L 496.617188 73.46875 Z M 154.546875 3.453125 " fill-opacity="1" fill-rule="evenodd"/></g><g clip-path="url(#5c73cd843e)"><path fill="#1a1a1a" d="M 155.414062 5.859375 L 496.40625 72.320312 L 496.519531 72.34375 L 496.617188 72.410156 L 509.210938 81.261719 L 508.585938 82.152344 L 496.082031 73.367188 L 155.210938 6.929688 Z M 155.414062 5.859375 " fill-opacity="1" fill-rule="evenodd"/></g><path fill="#92aa9d" d="M 154.769531 6.898438 C 156.113281 6.898438 157.210938 5.800781 157.210938 4.460938 C 157.210938 3.117188 156.113281 2.023438 154.769531 2.023438 C 153.429688 2.023438 152.332031 3.117188 152.332031 4.460938 C 152.332031 5.800781 153.429688 6.898438 154.769531 6.898438 Z M 154.769531 6.898438 " fill-opacity="1" fill-rule="evenodd"/><path fill="#ee952d" d="M 133.339844 330.832031 L 137.175781 330.824219 L 176.1875 344.132812 L 172.351562 344.140625 Z M 133.339844 330.832031 " fill-opacity="1" fill-rule="evenodd"/><path fill="#ee952d" d="M 176.1875 330.832031 L 172.351562 330.824219 L 133.339844 344.132812 L 137.175781 344.140625 Z M 176.1875 330.832031 " fill-opacity="1" fill-rule="evenodd"/><path fill="#ee952d" d="M 176.222656 346.316406 L 173.332031 346.316406 L 133.339844 369.351562 L 136.230469 369.351562 Z M 176.222656 346.316406 " fill-opacity="1" fill-rule="evenodd"/><path fill="#ee952d" d="M 133.339844 346.316406 L 136.230469 346.316406 L 176.222656 369.351562 L 173.332031 369.351562 Z M 133.339844 346.316406 " fill-opacity="1" fill-rule="evenodd"/><path fill="#ee952d" d="M 133.339844 371.5625 L 136.230469 371.5625 L 176.222656 394.59375 L 173.332031 394.59375 Z M 133.339844 371.5625 " fill-opacity="1" fill-rule="evenodd"/><path fill="#ee952d" d="M 176.222656 371.5625 L 173.332031 371.5625 L 133.339844 394.59375 L 136.230469 394.59375 Z M 176.222656 371.5625 " fill-opacity="1" fill-rule="evenodd"/><path fill="#ee952d" d="M 176.222656 396.808594 L 173.332031 396.808594 L 133.339844 419.839844 L 136.230469 419.839844 Z M 176.222656 396.808594 " fill-opacity="1" fill-rule="evenodd"/><path fill="#ee952d" d="M 133.339844 396.808594 L 136.230469 396.808594 L 176.222656 419.839844 L 173.332031 419.839844 Z M 133.339844 396.808594 " fill-opacity="1" fill-rule="evenodd"/><path fill="#ee952d" d="M 176.1875 447.339844 L 172.351562 447.332031 L 133.339844 462.777344 L 137.175781 462.785156 Z M 176.1875 447.339844 " fill-opacity="1" fill-rule="evenodd"/><path fill="#ee952d" d="M 133.339844 447.339844 L 137.175781 447.332031 L 176.1875 462.777344 L 172.351562 462.785156 Z M 133.339844 447.339844 " fill-opacity="1" fill-rule="evenodd"/><g clip-path="url(#9af4e31172)"><path fill="#1a1a1a" d="M 181.035156 85.234375 L 481.023438 85.234375 L 481.023438 86.328125 L 181.035156 86.328125 Z M 181.035156 85.234375 " fill-opacity="1" fill-rule="evenodd"/></g><g clip-path="url(#baf3fb3d5e)"><path fill="#ee952d" d="M 460.066406 71.363281 L 461.015625 69.402344 L 483.277344 80.15625 L 482.332031 82.121094 Z M 460.066406 71.363281 " fill-opacity="1" fill-rule="evenodd"/></g><g clip-path="url(#aa0803ba06)"><path fill="#ee952d" d="M 459.472656 80.652344 L 482.527344 70.332031 L 483.414062 72.320312 L 460.363281 82.636719 Z M 459.472656 80.652344 " fill-opacity="1" fill-rule="evenodd"/></g><path fill="#ee952d" d="M 315.511719 65.910156 L 316.796875 64.152344 L 338.761719 80.242188 L 337.472656 82 Z M 315.511719 65.910156 " fill-opacity="1" fill-rule="evenodd"/><path fill="#ee952d" d="M 315.015625 80.75 L 337.757812 64.910156 L 339.003906 66.703125 L 316.261719 82.539062 Z M 315.015625 80.75 " fill-opacity="1" fill-rule="evenodd"/><path fill="#ee952d" d="M 339.21875 66.546875 L 340.457031 64.753906 L 362.851562 80.230469 L 361.613281 82.023438 Z M 339.21875 66.546875 " fill-opacity="1" fill-rule="evenodd"/><path fill="#ee952d" d="M 339.160156 80.734375 L 362.144531 65.648438 L 363.339844 67.464844 L 340.351562 82.554688 Z M 339.160156 80.734375 " fill-opacity="1" fill-rule="evenodd"/><path fill="#ee952d" d="M 363.390625 67.515625 L 364.578125 65.691406 L 387.011719 80.261719 L 385.828125 82.085938 Z M 363.390625 67.515625 " fill-opacity="1" fill-rule="evenodd"/><path fill="#ee952d" d="M 363.199219 80.714844 L 385.960938 66.746094 L 387.097656 68.605469 L 364.332031 82.574219 Z M 363.199219 80.714844 " fill-opacity="1" fill-rule="evenodd"/><path fill="#ee952d" d="M 409.917969 82.078125 L 387.804688 68.632812 L 388.9375 66.769531 L 411.054688 80.21875 Z M 409.917969 82.078125 " fill-opacity="1" fill-rule="evenodd"/><path fill="#ee952d" d="M 387.273438 80.699219 L 410.09375 67.640625 L 411.179688 69.535156 L 388.359375 82.589844 Z M 387.273438 80.699219 " fill-opacity="1" fill-rule="evenodd"/><path fill="#ee952d" d="M 434.089844 82.105469 L 411.609375 69.386719 L 412.683594 67.492188 L 435.164062 80.210938 Z M 434.089844 82.105469 " fill-opacity="1" fill-rule="evenodd"/><path fill="#ee952d" d="M 411.351562 80.679688 L 434.375 68.472656 L 435.390625 70.402344 L 412.367188 82.609375 Z M 411.351562 80.679688 " fill-opacity="1" fill-rule="evenodd"/><path fill="#ee952d" d="M 458.179688 82.097656 L 435.679688 70.296875 L 436.6875 68.371094 L 459.183594 80.167969 Z M 458.179688 82.097656 " fill-opacity="1" fill-rule="evenodd"/><path fill="#ee952d" d="M 435.421875 80.667969 L 458.585938 69.347656 L 459.542969 71.300781 L 436.375 82.621094 Z M 435.421875 80.667969 " fill-opacity="1" fill-rule="evenodd"/><path fill="#ee952d" d="M 290.894531 80.765625 L 313.542969 64.078125 L 314.828125 65.835938 L 292.183594 82.523438 Z M 290.894531 80.765625 " fill-opacity="1" fill-rule="evenodd"/><path fill="#ee952d" d="M 267.101562 80.546875 L 290.027344 62.65625 L 291.367188 64.371094 L 268.441406 82.261719 Z M 267.101562 80.546875 " fill-opacity="1" fill-rule="evenodd"/><path fill="#ee952d" d="M 313.539062 82.132812 L 290.890625 64.597656 L 292.222656 62.875 L 314.871094 80.410156 Z M 313.539062 82.132812 " fill-opacity="1" fill-rule="evenodd"/><path fill="#ee952d" d="M 266.828125 63.75 L 268.199219 62.0625 L 291.175781 80.753906 L 289.804688 82.445312 Z M 266.828125 63.75 " fill-opacity="1" fill-rule="evenodd"/><path fill="#ee952d" d="M 193.523438 82.5625 L 166.566406 60.082031 L 167.957031 58.410156 L 194.914062 80.890625 Z M 193.523438 82.5625 " fill-opacity="1" fill-rule="evenodd"/><path fill="#ee952d" d="M 166.550781 80.652344 L 193.21875 59.328125 L 194.578125 61.023438 L 167.910156 82.347656 Z M 166.550781 80.652344 " fill-opacity="1" fill-rule="evenodd"/><path fill="#ee952d" d="M 217.484375 82.453125 L 194.636719 61.035156 L 196.132812 59.445312 L 218.980469 80.867188 Z M 217.484375 82.453125 " fill-opacity="1" fill-rule="evenodd"/><path fill="#ee952d" d="M 194.511719 80.785156 L 217.375 60.199219 L 218.835938 61.820312 L 195.96875 82.40625 Z M 194.511719 80.785156 " fill-opacity="1" fill-rule="evenodd"/><path fill="#ee952d" d="M 241.464844 82.3125 L 218.808594 61.996094 L 220.257812 60.378906 L 242.914062 80.691406 Z M 241.464844 82.3125 " fill-opacity="1" fill-rule="evenodd"/><path fill="#ee952d" d="M 218.632812 80.703125 L 241.625 60.984375 L 243.042969 62.640625 L 220.050781 82.359375 Z M 218.632812 80.703125 " fill-opacity="1" fill-rule="evenodd"/><path fill="#ee952d" d="M 243.042969 63.058594 L 244.460938 61.402344 L 266.761719 80.484375 L 265.347656 82.136719 Z M 243.042969 63.058594 " fill-opacity="1" fill-rule="evenodd"/><path fill="#ee952d" d="M 242.738281 80.773438 L 265.507812 62.097656 L 266.890625 63.777344 L 244.121094 82.453125 Z M 242.738281 80.773438 " fill-opacity="1" fill-rule="evenodd"/><path fill="#ee952d" d="M 45.542969 82.304688 L 23.96875 76.214844 L 24.558594 74.113281 L 46.132812 80.207031 Z M 45.542969 82.304688 " fill-opacity="1" fill-rule="evenodd"/><path fill="#ee952d" d="M 24.285156 80.265625 L 45.648438 71.429688 L 46.476562 73.441406 L 25.113281 82.277344 Z M 24.285156 80.265625 " fill-opacity="1" fill-rule="evenodd"/><path fill="#ee952d" d="M 114.890625 63.636719 L 116.136719 61.851562 L 142.421875 80.222656 L 141.175781 82.007812 Z M 114.890625 63.636719 " fill-opacity="1" fill-rule="evenodd"/><path fill="#ee952d" d="M 115.234375 80.277344 L 141.101562 58.761719 L 142.492188 60.433594 L 116.628906 81.949219 Z M 115.234375 80.277344 " fill-opacity="1" fill-rule="evenodd"/><path fill="#ee952d" d="M 91.617188 81.03125 L 113.566406 62.050781 L 114.992188 63.695312 L 93.042969 82.675781 Z M 91.617188 81.03125 " fill-opacity="1" fill-rule="evenodd"/><path fill="#ee952d" d="M 92.078125 66.6875 L 93.367188 64.933594 L 114.21875 80.238281 L 112.929688 81.992188 Z M 92.078125 66.6875 " fill-opacity="1" fill-rule="evenodd"/><path fill="#ffb03a" d="M 0.0742188 75.535156 L 2.433594 75.535156 L 2.433594 81.113281 L 0.0742188 81.113281 Z M 0.0742188 75.535156 " fill-opacity="1" fill-rule="evenodd"/><path fill="#ee952d" d="M 69.429688 80.578125 L 90.832031 65.195312 L 92.101562 66.960938 L 70.699219 82.347656 Z M 69.429688 80.578125 " fill-opacity="1" fill-rule="evenodd"/><path fill="#ee952d" d="M 69.453125 69.878906 L 70.554688 67.992188 L 91.695312 80.34375 L 90.59375 82.230469 Z M 69.453125 69.878906 " fill-opacity="1" fill-rule="evenodd"/><path fill="#ee952d" d="M 46.519531 80.570312 L 68.503906 68.125 L 69.574219 70.019531 L 47.59375 82.46875 Z M 46.519531 80.570312 " fill-opacity="1" fill-rule="evenodd"/><path fill="#ee952d" d="M 46.550781 72.996094 L 47.414062 70.992188 L 68.859375 80.226562 L 67.996094 82.234375 Z M 46.550781 72.996094 " fill-opacity="1" fill-rule="evenodd"/><path fill="#ffb03a" d="M 141.796875 311.097656 L 167.742188 311.097656 L 167.742188 313.28125 L 141.796875 313.28125 Z M 141.796875 311.097656 " fill-opacity="1" fill-rule="evenodd"/><path fill="#ffb03a" d="M 141.796875 311.097656 L 144.945312 311.097656 L 144.945312 432.675781 L 141.796875 432.675781 Z M 141.796875 311.097656 " fill-opacity="1" fill-rule="evenodd"/><path fill="#ffb03a" d="M 164.597656 311.097656 L 167.742188 311.097656 L 167.742188 432.675781 L 164.597656 432.675781 Z M 164.597656 311.097656 " fill-opacity="1" fill-rule="evenodd"/><path fill="#ffb03a" d="M 141.796875 82.257812 L 144.945312 82.257812 L 144.945312 109.867188 L 141.796875 109.867188 Z M 141.796875 82.257812 " fill-opacity="1" fill-rule="evenodd"/><path fill="#ffb03a" d="M 164.597656 82.257812 L 167.742188 82.257812 L 167.742188 109.867188 L 164.597656 109.867188 Z M 164.597656 82.257812 " fill-opacity="1" fill-rule="evenodd"/><path fill="#ee952d" d="M 144.945312 84.441406 L 147.835938 84.441406 L 164.597656 107.683594 L 161.707031 107.683594 Z M 144.945312 84.441406 " fill-opacity="1" fill-rule="evenodd"/><path fill="#ee952d" d="M 164.597656 84.441406 L 161.707031 84.441406 L 144.945312 107.683594 L 147.835938 107.683594 Z M 164.597656 84.441406 " fill-opacity="1" fill-rule="evenodd"/><path fill="#ffb03a" d="M 141.796875 107.683594 L 167.742188 107.683594 L 167.742188 109.867188 L 141.796875 109.867188 Z M 141.796875 107.683594 " fill-opacity="1" fill-rule="evenodd"/><path fill="#ffb03a" d="M 141.796875 107.683594 L 144.945312 107.683594 L 144.945312 135.292969 L 141.796875 135.292969 Z M 141.796875 107.683594 " fill-opacity="1" fill-rule="evenodd"/><path fill="#ffb03a" d="M 164.597656 107.683594 L 167.742188 107.683594 L 167.742188 135.292969 L 164.597656 135.292969 Z M 164.597656 107.683594 " fill-opacity="1" fill-rule="evenodd"/><path fill="#ee952d" d="M 144.945312 109.867188 L 147.835938 109.867188 L 164.597656 133.109375 L 161.707031 133.109375 Z M 144.945312 109.867188 " fill-opacity="1" fill-rule="evenodd"/><path fill="#ee952d" d="M 164.597656 109.867188 L 161.707031 109.867188 L 144.945312 133.109375 L 147.835938 133.109375 Z M 164.597656 109.867188 " fill-opacity="1" fill-rule="evenodd"/><path fill="#ffb03a" d="M 141.796875 133.109375 L 167.742188 133.109375 L 167.742188 135.292969 L 141.796875 135.292969 Z M 141.796875 133.109375 " fill-opacity="1" fill-rule="evenodd"/><path fill="#ffb03a" d="M 141.796875 133.109375 L 144.945312 133.109375 L 144.945312 160.71875 L 141.796875 160.71875 Z M 141.796875 133.109375 " fill-opacity="1" fill-rule="evenodd"/><path fill="#ffb03a" d="M 164.597656 133.109375 L 167.742188 133.109375 L 167.742188 160.71875 L 164.597656 160.71875 Z M 164.597656 133.109375 " fill-opacity="1" fill-rule="evenodd"/><path fill="#ee952d" d="M 144.945312 135.292969 L 147.835938 135.292969 L 164.597656 158.539062 L 161.707031 158.539062 Z M 144.945312 135.292969 " fill-opacity="1" fill-rule="evenodd"/><path fill="#ee952d" d="M 164.597656 135.292969 L 161.707031 135.292969 L 144.945312 158.539062 L 147.835938 158.539062 Z M 164.597656 135.292969 " fill-opacity="1" fill-rule="evenodd"/><path fill="#ffb03a" d="M 141.796875 158.539062 L 167.742188 158.539062 L 167.742188 160.722656 L 141.796875 160.722656 Z M 141.796875 158.539062 " fill-opacity="1" fill-rule="evenodd"/><path fill="#ffb03a" d="M 141.796875 158.539062 L 144.945312 158.539062 L 144.945312 186.148438 L 141.796875 186.148438 Z M 141.796875 158.539062 " fill-opacity="1" fill-rule="evenodd"/><path fill="#ffb03a" d="M 164.597656 158.539062 L 167.742188 158.539062 L 167.742188 186.148438 L 164.597656 186.148438 Z M 164.597656 158.539062 " fill-opacity="1" fill-rule="evenodd"/><path fill="#ee952d" d="M 144.945312 160.722656 L 147.835938 160.722656 L 164.597656 183.964844 L 161.707031 183.964844 Z M 144.945312 160.722656 " fill-opacity="1" fill-rule="evenodd"/><path fill="#ee952d" d="M 164.597656 160.722656 L 161.707031 160.722656 L 144.945312 183.964844 L 147.835938 183.964844 Z M 164.597656 160.722656 " fill-opacity="1" fill-rule="evenodd"/><path fill="#ffb03a" d="M 141.796875 183.964844 L 167.742188 183.964844 L 167.742188 186.148438 L 141.796875 186.148438 Z M 141.796875 183.964844 " fill-opacity="1" fill-rule="evenodd"/><path fill="#ffb03a" d="M 141.796875 183.964844 L 144.945312 183.964844 L 144.945312 211.574219 L 141.796875 211.574219 Z M 141.796875 183.964844 " fill-opacity="1" fill-rule="evenodd"/><path fill="#ffb03a" d="M 164.597656 183.964844 L 167.742188 183.964844 L 167.742188 211.574219 L 164.597656 211.574219 Z M 164.597656 183.964844 " fill-opacity="1" fill-rule="evenodd"/><path fill="#ee952d" d="M 144.945312 186.148438 L 147.835938 186.148438 L 164.597656 209.390625 L 161.707031 209.390625 Z M 144.945312 186.148438 " fill-opacity="1" fill-rule="evenodd"/><path fill="#ee952d" d="M 164.597656 186.148438 L 161.707031 186.148438 L 144.945312 209.390625 L 147.835938 209.390625 Z M 164.597656 186.148438 " fill-opacity="1" fill-rule="evenodd"/><path fill="#ffb03a" d="M 141.796875 209.390625 L 167.742188 209.390625 L 167.742188 211.574219 L 141.796875 211.574219 Z M 141.796875 209.390625 " fill-opacity="1" fill-rule="evenodd"/><path fill="#ffb03a" d="M 141.796875 209.390625 L 144.945312 209.390625 L 144.945312 237 L 141.796875 237 Z M 141.796875 209.390625 " fill-opacity="1" fill-rule="evenodd"/><path fill="#ffb03a" d="M 164.597656 209.390625 L 167.742188 209.390625 L 167.742188 237 L 164.597656 237 Z M 164.597656 209.390625 " fill-opacity="1" fill-rule="evenodd"/><path fill="#ee952d" d="M 144.945312 211.574219 L 147.835938 211.574219 L 164.597656 234.816406 L 161.707031 234.816406 Z M 144.945312 211.574219 " fill-opacity="1" fill-rule="evenodd"/><path fill="#ee952d" d="M 164.597656 211.574219 L 161.707031 211.574219 L 144.945312 234.816406 L 147.835938 234.816406 Z M 164.597656 211.574219 " fill-opacity="1" fill-rule="evenodd"/><path fill="#ffb03a" d="M 141.796875 234.816406 L 167.742188 234.816406 L 167.742188 237 L 141.796875 237 Z M 141.796875 234.816406 " fill-opacity="1" fill-rule="evenodd"/><path fill="#ffb03a" d="M 141.796875 234.816406 L 144.945312 234.816406 L 144.945312 262.425781 L 141.796875 262.425781 Z M 141.796875 234.816406 " fill-opacity="1" fill-rule="evenodd"/><path fill="#ffb03a" d="M 164.597656 234.816406 L 167.742188 234.816406 L 167.742188 262.425781 L 164.597656 262.425781 Z M 164.597656 234.816406 " fill-opacity="1" fill-rule="evenodd"/><path fill="#ee952d" d="M 144.945312 237 L 147.835938 237 L 164.597656 260.246094 L 161.707031 260.246094 Z M 144.945312 237 " fill-opacity="1" fill-rule="evenodd"/><path fill="#ee952d" d="M 164.597656 237 L 161.707031 237 L 144.945312 260.246094 L 147.835938 260.246094 Z M 164.597656 237 " fill-opacity="1" fill-rule="evenodd"/><path fill="#ffb03a" d="M 141.796875 260.246094 L 167.742188 260.246094 L 167.742188 262.429688 L 141.796875 262.429688 Z M 141.796875 260.246094 " fill-opacity="1" fill-rule="evenodd"/><path fill="#ffb03a" d="M 141.796875 260.246094 L 144.945312 260.246094 L 144.945312 287.855469 L 141.796875 287.855469 Z M 141.796875 260.246094 " fill-opacity="1" fill-rule="evenodd"/><path fill="#ffb03a" d="M 164.597656 260.246094 L 167.742188 260.246094 L 167.742188 287.855469 L 164.597656 287.855469 Z M 164.597656 260.246094 " fill-opacity="1" fill-rule="evenodd"/><path fill="#ee952d" d="M 144.945312 262.429688 L 147.835938 262.429688 L 164.597656 285.671875 L 161.707031 285.671875 Z M 144.945312 262.429688 " fill-opacity="1" fill-rule="evenodd"/><path fill="#ee952d" d="M 164.597656 262.429688 L 161.707031 262.429688 L 144.945312 285.671875 L 147.835938 285.671875 Z M 164.597656 262.429688 " fill-opacity="1" fill-rule="evenodd"/><path fill="#ffb03a" d="M 141.796875 285.671875 L 167.742188 285.671875 L 167.742188 287.855469 L 141.796875 287.855469 Z M 141.796875 285.671875 " fill-opacity="1" fill-rule="evenodd"/><path fill="#ffb03a" d="M 141.796875 285.671875 L 144.945312 285.671875 L 144.945312 313.28125 L 141.796875 313.28125 Z M 141.796875 285.671875 " fill-opacity="1" fill-rule="evenodd"/><path fill="#ffb03a" d="M 164.597656 285.671875 L 167.742188 285.671875 L 167.742188 313.28125 L 164.597656 313.28125 Z M 164.597656 285.671875 " fill-opacity="1" fill-rule="evenodd"/><path fill="#ee952d" d="M 144.945312 287.855469 L 147.835938 287.855469 L 164.597656 311.097656 L 161.707031 311.097656 Z M 144.945312 287.855469 " fill-opacity="1" fill-rule="evenodd"/><path fill="#ee952d" d="M 164.597656 287.855469 L 161.707031 287.855469 L 144.945312 311.097656 L 147.835938 311.097656 Z M 164.597656 287.855469 " fill-opacity="1" fill-rule="evenodd"/><path fill="#ee952d" d="M 95.558594 463.636719 L 213.980469 463.636719 L 213.980469 470.058594 L 95.558594 470.058594 Z M 95.558594 463.636719 " fill-opacity="1" fill-rule="evenodd"/><g clip-path="url(#84dc24e270)"><path fill="#37535f" d="M 98.246094 470.058594 L 110.0625 470.058594 L 110.0625 476.125 L 98.246094 476.125 Z M 98.246094 470.058594 " fill-opacity="1" fill-rule="evenodd"/></g><path fill="#5c797f" d="M 99.246094 471.148438 L 109.058594 471.148438 L 109.058594 475.035156 L 99.246094 475.035156 Z M 99.246094 471.148438 " fill-opacity="1" fill-rule="evenodd"/><g clip-path="url(#bd02913485)"><path fill="#37535f" d="M 199.480469 470.058594 L 211.296875 470.058594 L 211.296875 476.125 L 199.480469 476.125 Z M 199.480469 470.058594 " fill-opacity="1" fill-rule="evenodd"/></g><path fill="#5c797f" d="M 200.484375 471.148438 L 210.292969 471.148438 L 210.292969 475.035156 L 200.484375 475.035156 Z M 200.484375 471.148438 " fill-opacity="1" fill-rule="evenodd"/><g clip-path="url(#51c8dc789a)"><path fill="#37535f" d="M 121.023438 470.058594 L 188.519531 470.058594 L 188.519531 476.125 L 121.023438 476.125 Z M 121.023438 470.058594 " fill-opacity="1" fill-rule="evenodd"/></g><path fill="#37535f" d="M 110.0625 471.253906 L 121.027344 473.566406 L 121.027344 474.242188 L 110.0625 471.925781 Z M 110.0625 471.253906 " fill-opacity="1" fill-rule="evenodd"/><path fill="#37535f" d="M 113.5 470.058594 L 114.078125 470.058594 L 114.078125 472.34375 L 113.5 472.34375 Z M 113.5 470.058594 " fill-opacity="1" fill-rule="evenodd"/><path fill="#37535f" d="M 116.996094 470.058594 L 117.574219 470.058594 L 117.574219 472.953125 L 116.996094 472.953125 Z M 116.996094 470.058594 " fill-opacity="1" fill-rule="evenodd"/><path fill="#37535f" d="M 199.480469 471.253906 L 188.519531 473.566406 L 188.519531 474.242188 L 199.480469 471.925781 Z M 199.480469 471.253906 " fill-opacity="1" fill-rule="evenodd"/><path fill="#37535f" d="M 195.464844 470.058594 L 196.042969 470.058594 L 196.042969 472.34375 L 195.464844 472.34375 Z M 195.464844 470.058594 " fill-opacity="1" fill-rule="evenodd"/><path fill="#37535f" d="M 191.96875 470.058594 L 192.546875 470.058594 L 192.546875 472.953125 L 191.96875 472.953125 Z M 191.96875 470.058594 " fill-opacity="1" fill-rule="evenodd"/><path fill="#ffb03a" d="M 130.175781 328.644531 L 133.320312 328.644531 L 133.320312 462.785156 L 130.175781 462.785156 Z M 130.175781 328.644531 " fill-opacity="1" fill-rule="evenodd"/><path fill="#ffb03a" d="M 176.222656 328.644531 L 179.367188 328.644531 L 179.367188 462.785156 L 176.222656 462.785156 Z M 176.222656 328.644531 " fill-opacity="1" fill-rule="evenodd"/><path fill="#ffb03a" d="M 164.585938 311.105469 L 167.714844 311.105469 L 179.367188 328.644531 L 176.21875 328.621094 Z M 164.585938 311.105469 " fill-opacity="1" fill-rule="evenodd"/><path fill="#ffb03a" d="M 144.957031 311.105469 L 141.824219 311.105469 L 130.175781 328.644531 L 133.320312 328.621094 Z M 144.957031 311.105469 " fill-opacity="1" fill-rule="evenodd"/><path fill="#ffb03a" d="M 130.175781 328.644531 L 179.367188 328.644531 L 179.367188 330.828125 L 130.175781 330.828125 Z M 130.175781 328.644531 " fill-opacity="1" fill-rule="evenodd"/><path fill="#ffb03a" d="M 189.554688 345.222656 C 189.554688 345.273438 189.5 345.324219 189.386719 345.375 C 189.277344 345.425781 189.109375 345.476562 188.886719 345.523438 C 188.664062 345.574219 188.386719 345.625 188.058594 345.671875 C 187.726562 345.71875 187.34375 345.769531 186.90625 345.8125 C 186.472656 345.859375 185.984375 345.90625 185.449219 345.953125 C 184.910156 345.996094 184.328125 346.039062 183.691406 346.082031 C 183.058594 346.125 182.382812 346.164062 181.660156 346.203125 C 180.9375 346.242188 180.171875 346.28125 179.367188 346.316406 C 178.5625 346.351562 177.71875 346.386719 176.839844 346.417969 C 175.957031 346.449219 175.042969 346.480469 174.097656 346.507812 C 173.148438 346.535156 172.171875 346.5625 171.167969 346.585938 C 170.164062 346.609375 169.136719 346.628906 168.082031 346.648438 C 167.03125 346.667969 165.957031 346.6875 164.867188 346.699219 C 163.777344 346.714844 162.675781 346.726562 161.558594 346.738281 C 160.441406 346.746094 159.3125 346.753906 158.179688 346.761719 C 157.046875 346.765625 155.910156 346.765625 154.769531 346.765625 C 153.632812 346.765625 152.496094 346.765625 151.359375 346.761719 C 150.226562 346.753906 149.101562 346.746094 147.984375 346.738281 C 146.867188 346.726562 145.761719 346.714844 144.671875 346.699219 C 143.582031 346.6875 142.511719 346.667969 141.460938 346.648438 C 140.40625 346.628906 139.378906 346.609375 138.375 346.585938 C 137.367188 346.5625 136.390625 346.535156 135.445312 346.507812 C 134.496094 346.480469 133.582031 346.449219 132.703125 346.417969 C 131.824219 346.386719 130.980469 346.351562 130.175781 346.316406 C 129.367188 346.28125 128.605469 346.242188 127.882812 346.203125 C 127.160156 346.164062 126.480469 346.125 125.847656 346.082031 C 125.214844 346.039062 124.628906 345.996094 124.09375 345.953125 C 123.554688 345.90625 123.070312 345.859375 122.632812 345.8125 C 122.199219 345.769531 121.8125 345.71875 121.484375 345.671875 C 121.152344 345.625 120.875 345.574219 120.652344 345.523438 C 120.433594 345.476562 120.265625 345.425781 120.152344 345.375 C 120.042969 345.324219 119.984375 345.273438 119.984375 345.222656 C 119.984375 345.171875 120.042969 345.121094 120.152344 345.074219 C 120.265625 345.023438 120.433594 344.972656 120.652344 344.921875 C 120.875 344.871094 121.152344 344.824219 121.484375 344.777344 C 121.8125 344.726562 122.199219 344.679688 122.632812 344.632812 C 123.070312 344.585938 123.554688 344.539062 124.09375 344.496094 C 124.628906 344.453125 125.214844 344.40625 125.847656 344.367188 C 126.480469 344.324219 127.160156 344.285156 127.882812 344.246094 C 128.605469 344.207031 129.367188 344.167969 130.175781 344.132812 C 130.980469 344.097656 131.824219 344.0625 132.703125 344.03125 C 133.582031 344 134.496094 343.96875 135.445312 343.941406 C 136.390625 343.910156 137.367188 343.886719 138.375 343.863281 C 139.378906 343.839844 140.40625 343.816406 141.460938 343.796875 C 142.511719 343.777344 143.582031 343.761719 144.671875 343.746094 C 145.761719 343.730469 146.867188 343.71875 147.984375 343.710938 C 149.101562 343.699219 150.226562 343.691406 151.359375 343.6875 C 152.496094 343.683594 153.632812 343.679688 154.769531 343.679688 C 155.910156 343.679688 157.046875 343.683594 158.179688 343.6875 C 159.3125 343.691406 160.441406 343.699219 161.558594 343.710938 C 162.675781 343.71875 163.777344 343.730469 164.867188 343.746094 C 165.957031 343.761719 167.03125 343.777344 168.082031 343.796875 C 169.136719 343.816406 170.164062 343.839844 171.167969 343.863281 C 172.171875 343.886719 173.148438 343.910156 174.097656 343.941406 C 175.042969 343.96875 175.957031 344 176.839844 344.03125 C 177.71875 344.0625 178.5625 344.097656 179.367188 344.132812 C 180.171875 344.167969 180.9375 344.207031 181.660156 344.246094 C 182.382812 344.285156 183.058594 344.324219 183.691406 344.367188 C 184.328125 344.40625 184.910156 344.453125 185.449219 344.496094 C 185.984375 344.539062 186.472656 344.585938 186.90625 344.632812 C 187.34375 344.679688 187.726562 344.726562 188.058594 344.777344 C 188.386719 344.824219 188.664062 344.871094 188.886719 344.921875 C 189.109375 344.972656 189.277344 345.023438 189.386719 345.074219 C 189.5 345.121094 189.554688 345.171875 189.554688 345.222656 Z M 189.554688 345.222656 " fill-opacity="1" fill-rule="nonzero"/><path fill="#ffb03a" d="M 130.175781 369.378906 C 146.570312 369.378906 162.96875 369.378906 179.367188 369.378906 C 179.367188 370.105469 179.367188 370.832031 179.367188 371.5625 C 162.96875 371.5625 146.570312 371.5625 130.175781 371.5625 C 130.175781 370.832031 130.175781 370.105469 130.175781 369.378906 Z M 130.175781 369.378906 " fill-opacity="1" fill-rule="evenodd"/><path fill="#ffb03a" d="M 130.175781 394.625 C 146.570312 394.625 162.96875 394.625 179.367188 394.625 C 179.367188 395.351562 179.367188 396.078125 179.367188 396.808594 C 162.96875 396.808594 146.570312 396.808594 130.175781 396.808594 C 130.175781 396.078125 130.175781 395.351562 130.175781 394.625 Z M 130.175781 394.625 " fill-opacity="1" fill-rule="evenodd"/><path fill="#ffb03a" d="M 189.554688 420.960938 C 189.554688 421.011719 189.5 421.0625 189.386719 421.113281 C 189.277344 421.164062 189.109375 421.214844 188.886719 421.261719 C 188.664062 421.3125 188.386719 421.363281 188.058594 421.410156 C 187.726562 421.457031 187.34375 421.507812 186.90625 421.554688 C 186.472656 421.601562 185.984375 421.644531 185.449219 421.691406 C 184.910156 421.734375 184.328125 421.777344 183.691406 421.820312 C 183.058594 421.863281 182.382812 421.902344 181.660156 421.941406 C 180.9375 421.980469 180.171875 422.019531 179.367188 422.054688 C 178.5625 422.089844 177.71875 422.125 176.839844 422.15625 C 175.957031 422.1875 175.042969 422.21875 174.097656 422.246094 C 173.148438 422.273438 172.171875 422.300781 171.167969 422.324219 C 170.164062 422.347656 169.136719 422.367188 168.082031 422.386719 C 167.03125 422.40625 165.957031 422.425781 164.867188 422.441406 C 163.777344 422.453125 162.675781 422.464844 161.558594 422.476562 C 160.441406 422.484375 159.3125 422.492188 158.179688 422.5 C 157.046875 422.503906 155.910156 422.507812 154.769531 422.507812 C 153.632812 422.507812 152.496094 422.503906 151.359375 422.5 C 150.226562 422.492188 149.101562 422.484375 147.984375 422.476562 C 146.867188 422.464844 145.761719 422.453125 144.671875 422.441406 C 143.582031 422.425781 142.511719 422.40625 141.460938 422.386719 C 140.40625 422.367188 139.378906 422.347656 138.375 422.324219 C 137.367188 422.300781 136.390625 422.273438 135.445312 422.246094 C 134.496094 422.21875 133.582031 422.1875 132.703125 422.15625 C 131.824219 422.125 130.980469 422.089844 130.175781 422.054688 C 129.367188 422.019531 128.605469 421.980469 127.882812 421.941406 C 127.160156 421.902344 126.480469 421.863281 125.847656 421.820312 C 125.214844 421.777344 124.628906 421.734375 124.09375 421.691406 C 123.554688 421.644531 123.070312 421.601562 122.632812 421.554688 C 122.199219 421.507812 121.8125 421.457031 121.484375 421.410156 C 121.152344 421.363281 120.875 421.3125 120.652344 421.261719 C 120.433594 421.214844 120.265625 421.164062 120.152344 421.113281 C 120.042969 421.0625 119.984375 421.011719 119.984375 420.960938 C 119.984375 420.910156 120.042969 420.859375 120.152344 420.8125 C 120.265625 420.761719 120.433594 420.710938 120.652344 420.660156 C 120.875 420.613281 121.152344 420.5625 121.484375 420.515625 C 121.8125 420.464844 122.199219 420.417969 122.632812 420.371094 C 123.070312 420.324219 123.554688 420.277344 124.09375 420.234375 C 124.628906 420.191406 125.214844 420.148438 125.847656 420.105469 C 126.480469 420.0625 127.160156 420.023438 127.882812 419.984375 C 128.605469 419.945312 129.367188 419.90625 130.175781 419.871094 C 130.980469 419.835938 131.824219 419.800781 132.703125 419.769531 C 133.582031 419.738281 134.496094 419.707031 135.445312 419.679688 C 136.390625 419.652344 137.367188 419.625 138.375 419.601562 C 139.378906 419.578125 140.40625 419.554688 141.460938 419.535156 C 142.511719 419.515625 143.582031 419.5 144.671875 419.484375 C 145.761719 419.46875 146.867188 419.457031 147.984375 419.449219 C 149.101562 419.4375 150.226562 419.429688 151.359375 419.425781 C 152.496094 419.421875 153.632812 419.417969 154.769531 419.417969 C 155.910156 419.417969 157.046875 419.421875 158.179688 419.425781 C 159.3125 419.429688 160.441406 419.4375 161.558594 419.449219 C 162.675781 419.457031 163.777344 419.46875 164.867188 419.484375 C 165.957031 419.5 167.03125 419.515625 168.082031 419.535156 C 169.136719 419.554688 170.164062 419.578125 171.167969 419.601562 C 172.171875 419.625 173.148438 419.652344 174.097656 419.679688 C 175.042969 419.707031 175.957031 419.738281 176.839844 419.769531 C 177.71875 419.800781 178.5625 419.835938 179.367188 419.871094 C 180.171875 419.90625 180.9375 419.945312 181.660156 419.984375 C 182.382812 420.023438 183.058594 420.0625 183.691406 420.105469 C 184.328125 420.148438 184.910156 420.191406 185.449219 420.234375 C 185.984375 420.277344 186.472656 420.324219 186.90625 420.371094 C 187.34375 420.417969 187.726562 420.464844 188.058594 420.515625 C 188.386719 420.5625 188.664062 420.613281 188.886719 420.660156 C 189.109375 420.710938 189.277344 420.761719 189.386719 420.8125 C 189.5 420.859375 189.554688 420.910156 189.554688 420.960938 Z M 189.554688 420.960938 " fill-opacity="1" fill-rule="nonzero"/><path fill="#ffb03a" d="M 130.175781 445.117188 L 179.367188 445.117188 L 179.367188 447.300781 L 130.175781 447.300781 Z M 130.175781 445.117188 " fill-opacity="1" fill-rule="evenodd"/><path fill="#ee952d" d="M 133.339844 422.054688 L 136.230469 422.054688 L 176.222656 445.085938 L 173.332031 445.085938 Z M 133.339844 422.054688 " fill-opacity="1" fill-rule="evenodd"/><path fill="#ee952d" d="M 176.222656 422.054688 L 173.332031 422.054688 L 133.339844 445.085938 L 136.230469 445.085938 Z M 176.222656 422.054688 " fill-opacity="1" fill-rule="evenodd"/><g clip-path="url(#fc3682b637)"><path fill="#ffb03a" d="M 0.0742188 81.113281 L 509.214844 81.113281 L 509.214844 84.441406 L 0.0742188 84.441406 Z M 0.0742188 81.113281 " fill-opacity="1" fill-rule="evenodd"/></g><path fill="#ffb03a" d="M 0.0742188 75.535156 L 141.796875 56.273438 L 141.796875 59.597656 L 0.0742188 78.859375 Z M 0.0742188 75.535156 " fill-opacity="1" fill-rule="evenodd"/><g clip-path="url(#c54545815a)"><path fill="#ffb03a" d="M 167.742188 56.273438 L 509.214844 69.097656 L 509.214844 72.421875 L 167.742188 59.597656 Z M 167.742188 56.273438 " fill-opacity="1" fill-rule="evenodd"/></g><path fill="#ffb03a" d="M 146.207031 39.484375 L 163.335938 39.484375 L 163.335938 40.925781 L 146.207031 40.925781 Z M 146.207031 39.484375 " fill-opacity="1" fill-rule="evenodd"/><path fill="#ffb03a" d="M 146.207031 39.484375 L 148.28125 39.484375 L 148.28125 57.714844 L 146.207031 57.714844 Z M 146.207031 39.484375 " fill-opacity="1" fill-rule="evenodd"/><path fill="#ffb03a" d="M 161.257812 39.484375 L 163.335938 39.484375 L 163.335938 57.714844 L 161.257812 57.714844 Z M 161.257812 39.484375 " fill-opacity="1" fill-rule="evenodd"/><path fill="#ee952d" d="M 148.28125 40.925781 L 150.191406 40.925781 L 161.257812 56.273438 L 159.351562 56.273438 Z M 148.28125 40.925781 " fill-opacity="1" fill-rule="evenodd"/><path fill="#ee952d" d="M 161.257812 40.925781 L 159.351562 40.925781 L 148.28125 56.273438 L 150.191406 56.273438 Z M 161.257812 40.925781 " fill-opacity="1" fill-rule="evenodd"/><path fill="#ffb03a" d="M 146.207031 22.695312 L 163.335938 22.695312 L 163.335938 24.136719 L 146.207031 24.136719 Z M 146.207031 22.695312 " fill-opacity="1" fill-rule="evenodd"/><path fill="#ffb03a" d="M 146.207031 22.695312 L 148.28125 22.695312 L 148.28125 40.925781 L 146.207031 40.925781 Z M 146.207031 22.695312 " fill-opacity="1" fill-rule="evenodd"/><path fill="#ffb03a" d="M 161.257812 22.695312 L 163.335938 22.695312 L 163.335938 40.925781 L 161.257812 40.925781 Z M 161.257812 22.695312 " fill-opacity="1" fill-rule="evenodd"/><path fill="#ee952d" d="M 148.28125 24.140625 L 150.191406 24.140625 L 161.257812 39.484375 L 159.351562 39.484375 Z M 148.28125 24.140625 " fill-opacity="1" fill-rule="evenodd"/><path fill="#ee952d" d="M 161.257812 24.140625 L 159.351562 24.140625 L 148.28125 39.484375 L 150.191406 39.484375 Z M 161.257812 24.140625 " fill-opacity="1" fill-rule="evenodd"/><path fill="#ffb03a" d="M 146.207031 5.910156 L 163.335938 5.910156 L 163.335938 7.351562 L 146.207031 7.351562 Z M 146.207031 5.910156 " fill-opacity="1" fill-rule="evenodd"/><path fill="#ffb03a" d="M 146.207031 5.910156 L 148.28125 5.910156 L 148.28125 24.136719 L 146.207031 24.136719 Z M 146.207031 5.910156 " fill-opacity="1" fill-rule="evenodd"/><path fill="#ffb03a" d="M 161.257812 5.910156 L 163.335938 5.910156 L 163.335938 24.136719 L 161.257812 24.136719 Z M 161.257812 5.910156 " fill-opacity="1" fill-rule="evenodd"/><path fill="#ee952d" d="M 148.28125 7.351562 L 150.191406 7.351562 L 161.257812 22.699219 L 159.351562 22.699219 Z M 148.28125 7.351562 " fill-opacity="1" fill-rule="evenodd"/><path fill="#ee952d" d="M 161.257812 7.351562 L 159.351562 7.351562 L 148.28125 22.699219 L 150.191406 22.699219 Z M 161.257812 7.351562 " fill-opacity="1" fill-rule="evenodd"/><g clip-path="url(#14433a8dac)"><path fill="#ffb03a" d="M 151.347656 0.125 L 158.191406 0.125 L 159.230469 1.566406 L 150.308594 1.566406 Z M 151.347656 0.125 " fill-opacity="1" fill-rule="evenodd"/></g><g clip-path="url(#8fc8ce8dd9)"><path fill="#ffb03a" d="M 158.191406 0.125 L 162.355469 5.898438 L 160.449219 5.898438 L 156.285156 0.125 Z M 158.191406 0.125 " fill-opacity="1" fill-rule="evenodd"/></g><g clip-path="url(#d987d2249a)"><path fill="#ffb03a" d="M 151.347656 0.125 L 147.183594 5.898438 L 149.09375 5.898438 L 153.257812 0.125 Z M 151.347656 0.125 " fill-opacity="1" fill-rule="evenodd"/></g><path fill="#ffb03a" d="M 131.445312 53.996094 L 178.097656 53.996094 C 182.253906 53.996094 185.65625 57.394531 185.65625 61.550781 L 185.65625 91.6875 C 185.65625 93.070312 184.523438 94.203125 183.136719 94.203125 L 126.40625 94.203125 C 125.019531 94.203125 123.886719 93.070312 123.886719 91.6875 L 123.886719 61.550781 C 123.886719 57.394531 127.285156 53.996094 131.445312 53.996094 Z M 131.445312 53.996094 " fill-opacity="1" fill-rule="evenodd"/><path fill="#8bc4c4" d="M 133.929688 62.355469 L 143.882812 62.355469 C 145.453125 62.355469 146.734375 63.636719 146.734375 65.203125 L 146.734375 75.15625 C 146.734375 76.722656 145.453125 78.007812 143.882812 78.007812 L 133.929688 78.007812 C 132.359375 78.007812 131.078125 76.722656 131.078125 75.15625 L 131.078125 65.203125 C 131.078125 63.636719 132.359375 62.355469 133.929688 62.355469 Z M 133.929688 62.355469 " fill-opacity="1" fill-rule="evenodd"/><path fill="#c1e4e6" d="M 133.929688 62.355469 L 143.882812 62.355469 C 145.449219 62.355469 146.734375 63.636719 146.734375 65.207031 L 146.734375 72.945312 C 141.273438 72.109375 135.96875 71.097656 131.078125 69.863281 L 131.078125 65.207031 C 131.078125 63.636719 132.359375 62.355469 133.929688 62.355469 Z M 133.929688 62.355469 " fill-opacity="1" fill-rule="evenodd"/><path fill="#ffffff" d="M 143.5 63.328125 L 145.027344 63.363281 L 145.933594 75.96875 Z M 143.5 63.328125 " fill-opacity="1" fill-rule="evenodd"/><path fill="#ffb03a" d="M 113.574219 61.800781 L 115.933594 61.800781 L 115.933594 81.113281 L 113.574219 81.113281 Z M 113.574219 61.800781 " fill-opacity="1" fill-rule="evenodd"/><path fill="#ffb03a" d="M 45.476562 70.039062 C 46.261719 70.039062 47.046875 70.039062 47.832031 70.039062 C 47.832031 73.730469 47.832031 77.421875 47.832031 81.113281 C 47.046875 81.113281 46.261719 81.113281 45.476562 81.113281 C 45.476562 77.421875 45.476562 73.730469 45.476562 70.039062 Z M 45.476562 70.039062 " fill-opacity="1" fill-rule="evenodd"/><path fill="#ffb03a" d="M 68.175781 67.292969 C 68.960938 67.292969 69.746094 67.292969 70.53125 67.292969 C 70.53125 71.902344 70.53125 76.507812 70.53125 81.113281 C 69.746094 81.113281 68.960938 81.113281 68.175781 81.113281 C 68.175781 76.507812 68.175781 71.902344 68.175781 67.292969 Z M 68.175781 67.292969 " fill-opacity="1" fill-rule="evenodd"/><path fill="#ffb03a" d="M 90.875 64.546875 C 91.660156 64.546875 92.445312 64.546875 93.230469 64.546875 C 93.230469 70.070312 93.230469 75.59375 93.230469 81.113281 C 92.445312 81.113281 91.660156 81.113281 90.875 81.113281 C 90.875 75.59375 90.875 70.070312 90.875 64.546875 Z M 90.875 64.546875 " fill-opacity="1" fill-rule="evenodd"/><path fill="#ffb03a" d="M 316.84375 72.277344 C 316.84375 73.097656 316.832031 73.910156 316.8125 74.714844 C 316.789062 75.519531 316.757812 76.300781 316.71875 77.058594 C 316.675781 77.816406 316.625 78.539062 316.5625 79.21875 C 316.503906 79.902344 316.433594 80.535156 316.355469 81.113281 C 316.277344 81.695312 316.195312 82.214844 316.105469 82.667969 C 316.011719 83.125 315.917969 83.511719 315.816406 83.824219 C 315.714844 84.136719 315.609375 84.375 315.503906 84.535156 C 315.394531 84.695312 315.289062 84.773438 315.179688 84.773438 C 315.070312 84.773438 314.960938 84.695312 314.851562 84.535156 C 314.746094 84.375 314.640625 84.136719 314.539062 83.824219 C 314.441406 83.511719 314.34375 83.125 314.253906 82.667969 C 314.160156 82.214844 314.078125 81.695312 314 81.113281 C 313.921875 80.535156 313.855469 79.902344 313.792969 79.21875 C 313.730469 78.539062 313.679688 77.816406 313.640625 77.058594 C 313.597656 76.300781 313.566406 75.519531 313.542969 74.714844 C 313.523438 73.910156 313.511719 73.097656 313.511719 72.277344 C 313.511719 71.457031 313.523438 70.644531 313.542969 69.835938 C 313.566406 69.03125 313.597656 68.25 313.640625 67.492188 C 313.679688 66.734375 313.730469 66.015625 313.792969 65.332031 C 313.855469 64.648438 313.921875 64.019531 314 63.4375 C 314.078125 62.859375 314.160156 62.339844 314.253906 61.882812 C 314.34375 61.429688 314.441406 61.042969 314.539062 60.730469 C 314.640625 60.414062 314.746094 60.175781 314.851562 60.015625 C 314.960938 59.855469 315.070312 59.777344 315.179688 59.777344 C 315.289062 59.777344 315.394531 59.855469 315.503906 60.015625 C 315.609375 60.175781 315.714844 60.414062 315.816406 60.730469 C 315.917969 61.042969 316.011719 61.429688 316.105469 61.882812 C 316.195312 62.339844 316.277344 62.859375 316.355469 63.4375 C 316.433594 64.019531 316.503906 64.648438 316.5625 65.332031 C 316.625 66.015625 316.675781 66.734375 316.71875 67.492188 C 316.757812 68.25 316.789062 69.03125 316.8125 69.835938 C 316.832031 70.644531 316.84375 71.457031 316.84375 72.277344 Z M 316.84375 72.277344 " fill-opacity="1" fill-rule="nonzero"/><path fill="#ffb03a" d="M 338.109375 64.148438 C 338.894531 64.148438 339.679688 64.148438 340.464844 64.148438 C 340.464844 69.804688 340.464844 75.460938 340.464844 81.113281 C 339.679688 81.113281 338.894531 81.113281 338.109375 81.113281 C 338.109375 75.460938 338.109375 69.804688 338.109375 64.148438 Z M 338.109375 64.148438 " fill-opacity="1" fill-rule="evenodd"/><path fill="#ffb03a" d="M 365.058594 72.988281 C 365.058594 73.742188 365.046875 74.488281 365.027344 75.230469 C 365.003906 75.96875 364.972656 76.6875 364.933594 77.386719 C 364.890625 78.082031 364.839844 78.746094 364.777344 79.375 C 364.71875 80 364.648438 80.582031 364.570312 81.113281 C 364.492188 81.648438 364.410156 82.125 364.320312 82.542969 C 364.226562 82.964844 364.132812 83.316406 364.03125 83.605469 C 363.929688 83.894531 363.824219 84.113281 363.71875 84.261719 C 363.609375 84.410156 363.503906 84.480469 363.394531 84.480469 C 363.285156 84.480469 363.175781 84.410156 363.070312 84.261719 C 362.960938 84.113281 362.855469 83.894531 362.757812 83.605469 C 362.65625 83.316406 362.558594 82.964844 362.46875 82.542969 C 362.378906 82.125 362.292969 81.648438 362.214844 81.113281 C 362.136719 80.582031 362.070312 80 362.007812 79.375 C 361.949219 78.746094 361.898438 78.082031 361.855469 77.386719 C 361.8125 76.6875 361.78125 75.96875 361.761719 75.230469 C 361.738281 74.488281 361.726562 73.742188 361.726562 72.988281 C 361.726562 72.230469 361.738281 71.484375 361.761719 70.742188 C 361.78125 70.003906 361.8125 69.285156 361.855469 68.585938 C 361.898438 67.890625 361.949219 67.226562 362.007812 66.601562 C 362.070312 65.972656 362.136719 65.390625 362.214844 64.859375 C 362.292969 64.324219 362.378906 63.847656 362.46875 63.429688 C 362.558594 63.007812 362.65625 62.65625 362.757812 62.367188 C 362.855469 62.078125 362.960938 61.859375 363.070312 61.710938 C 363.175781 61.566406 363.285156 61.492188 363.394531 61.492188 C 363.503906 61.492188 363.609375 61.566406 363.71875 61.710938 C 363.824219 61.859375 363.929688 62.078125 364.03125 62.367188 C 364.132812 62.65625 364.226562 63.007812 364.320312 63.429688 C 364.410156 63.847656 364.492188 64.324219 364.570312 64.859375 C 364.648438 65.390625 364.71875 65.972656 364.777344 66.601562 C 364.839844 67.226562 364.890625 67.890625 364.933594 68.585938 C 364.972656 69.285156 365.003906 70.003906 365.027344 70.742188 C 365.046875 71.484375 365.058594 72.230469 365.058594 72.988281 Z M 365.058594 72.988281 " fill-opacity="1" fill-rule="nonzero"/><path fill="#ffb03a" d="M 386.324219 65.570312 C 387.109375 65.570312 387.894531 65.570312 388.679688 65.570312 C 388.679688 70.75 388.679688 75.933594 388.679688 81.113281 C 387.894531 81.113281 387.109375 81.113281 386.324219 81.113281 C 386.324219 75.933594 386.324219 70.75 386.324219 65.570312 Z M 386.324219 65.570312 " fill-opacity="1" fill-rule="evenodd"/><path fill="#ffb03a" d="M 292.738281 71.921875 C 292.738281 72.773438 292.726562 73.621094 292.703125 74.457031 C 292.683594 75.296875 292.652344 76.109375 292.609375 76.898438 C 292.566406 77.683594 292.515625 78.433594 292.457031 79.144531 C 292.394531 79.855469 292.324219 80.511719 292.25 81.113281 C 292.171875 81.71875 292.085938 82.257812 291.996094 82.730469 C 291.90625 83.207031 291.808594 83.605469 291.707031 83.933594 C 291.605469 84.261719 291.503906 84.507812 291.394531 84.671875 C 291.289062 84.839844 291.179688 84.921875 291.070312 84.921875 C 290.960938 84.921875 290.851562 84.839844 290.746094 84.671875 C 290.636719 84.507812 290.535156 84.261719 290.433594 83.933594 C 290.332031 83.605469 290.234375 83.207031 290.144531 82.730469 C 290.054688 82.257812 289.96875 81.71875 289.894531 81.113281 C 289.816406 80.511719 289.746094 79.855469 289.6875 79.144531 C 289.625 78.433594 289.574219 77.683594 289.53125 76.898438 C 289.488281 76.109375 289.457031 75.296875 289.4375 74.457031 C 289.414062 73.621094 289.40625 72.773438 289.40625 71.921875 C 289.40625 71.066406 289.414062 70.222656 289.4375 69.382812 C 289.457031 68.546875 289.488281 67.734375 289.53125 66.945312 C 289.574219 66.15625 289.625 65.40625 289.6875 64.699219 C 289.746094 63.988281 289.816406 63.332031 289.894531 62.726562 C 289.96875 62.125 290.054688 61.585938 290.144531 61.109375 C 290.234375 60.636719 290.332031 60.234375 290.433594 59.910156 C 290.535156 59.582031 290.636719 59.335938 290.746094 59.167969 C 290.851562 59.003906 290.960938 58.917969 291.070312 58.917969 C 291.179688 58.917969 291.289062 59.003906 291.394531 59.167969 C 291.503906 59.335938 291.605469 59.582031 291.707031 59.910156 C 291.808594 60.234375 291.90625 60.636719 291.996094 61.109375 C 292.085938 61.585938 292.171875 62.125 292.25 62.726562 C 292.324219 63.332031 292.394531 63.988281 292.457031 64.699219 C 292.515625 65.40625 292.566406 66.15625 292.609375 66.945312 C 292.652344 67.734375 292.683594 68.546875 292.703125 69.382812 C 292.726562 70.222656 292.738281 71.066406 292.738281 71.921875 Z M 292.738281 71.921875 " fill-opacity="1" fill-rule="nonzero"/><path fill="#ffb03a" d="M 265.785156 62.019531 C 266.570312 62.019531 267.355469 62.019531 268.140625 62.019531 C 268.140625 68.382812 268.140625 74.75 268.140625 81.113281 C 267.355469 81.113281 266.570312 81.113281 265.785156 81.113281 C 265.785156 74.75 265.785156 68.382812 265.785156 62.019531 Z M 265.785156 62.019531 " fill-opacity="1" fill-rule="evenodd"/><path fill="#ffb03a" d="M 193.460938 59.886719 L 195.820312 59.886719 L 195.820312 81.113281 L 193.460938 81.113281 Z M 193.460938 59.886719 " fill-opacity="1" fill-rule="evenodd"/><path fill="#ffb03a" d="M 217.570312 60.597656 C 218.355469 60.597656 219.140625 60.597656 219.925781 60.597656 C 219.925781 67.4375 219.925781 74.273438 219.925781 81.113281 C 219.140625 81.113281 218.355469 81.113281 217.570312 81.113281 C 217.570312 74.273438 217.570312 67.4375 217.570312 60.597656 Z M 217.570312 60.597656 " fill-opacity="1" fill-rule="evenodd"/><path fill="#ffb03a" d="M 241.675781 61.308594 C 242.460938 61.308594 243.25 61.308594 244.035156 61.308594 C 244.035156 67.910156 244.035156 74.511719 244.035156 81.113281 C 243.25 81.113281 242.460938 81.113281 241.675781 81.113281 C 241.675781 74.511719 241.675781 67.910156 241.675781 61.308594 Z M 241.675781 61.308594 " fill-opacity="1" fill-rule="evenodd"/><path fill="#ffb03a" d="M 413.273438 73.695312 C 413.273438 74.386719 413.261719 75.066406 413.242188 75.742188 C 413.222656 76.417969 413.1875 77.074219 413.148438 77.710938 C 413.105469 78.347656 413.054688 78.953125 412.992188 79.523438 C 412.933594 80.097656 412.863281 80.628906 412.785156 81.113281 C 412.710938 81.601562 412.625 82.035156 412.535156 82.417969 C 412.441406 82.800781 412.347656 83.125 412.246094 83.390625 C 412.144531 83.652344 412.039062 83.851562 411.933594 83.984375 C 411.828125 84.121094 411.71875 84.1875 411.609375 84.1875 C 411.5 84.1875 411.390625 84.121094 411.285156 83.984375 C 411.175781 83.851562 411.074219 83.652344 410.972656 83.390625 C 410.871094 83.125 410.773438 82.800781 410.683594 82.417969 C 410.59375 82.035156 410.507812 81.601562 410.429688 81.113281 C 410.355469 80.628906 410.285156 80.097656 410.222656 79.523438 C 410.164062 78.953125 410.113281 78.347656 410.070312 77.710938 C 410.027344 77.074219 409.996094 76.417969 409.976562 75.742188 C 409.953125 75.066406 409.941406 74.386719 409.941406 73.695312 C 409.941406 73.007812 409.953125 72.324219 409.976562 71.648438 C 409.996094 70.976562 410.027344 70.320312 410.070312 69.683594 C 410.113281 69.046875 410.164062 68.441406 410.222656 67.867188 C 410.285156 67.296875 410.355469 66.765625 410.429688 66.277344 C 410.507812 65.792969 410.59375 65.355469 410.683594 64.972656 C 410.773438 64.589844 410.871094 64.269531 410.972656 64.003906 C 411.074219 63.742188 411.175781 63.542969 411.285156 63.40625 C 411.390625 63.273438 411.5 63.207031 411.609375 63.207031 C 411.71875 63.207031 411.828125 63.273438 411.933594 63.40625 C 412.039062 63.542969 412.144531 63.742188 412.246094 64.003906 C 412.347656 64.269531 412.441406 64.589844 412.535156 64.972656 C 412.625 65.355469 412.710938 65.792969 412.785156 66.277344 C 412.863281 66.765625 412.933594 67.296875 412.992188 67.867188 C 413.054688 68.441406 413.105469 69.046875 413.148438 69.683594 C 413.1875 70.320312 413.222656 70.976562 413.242188 71.648438 C 413.261719 72.324219 413.273438 73.007812 413.273438 73.695312 Z M 413.273438 73.695312 " fill-opacity="1" fill-rule="nonzero"/><path fill="#ffb03a" d="M 434.539062 66.988281 C 435.324219 66.988281 436.109375 66.988281 436.894531 66.988281 C 436.894531 71.699219 436.894531 76.40625 436.894531 81.113281 C 436.109375 81.113281 435.324219 81.113281 434.539062 81.113281 C 434.539062 76.40625 434.539062 71.699219 434.539062 66.988281 Z M 434.539062 66.988281 " fill-opacity="1" fill-rule="evenodd"/><path fill="#ffb03a" d="M 461.488281 74.40625 C 461.488281 75.03125 461.480469 75.648438 461.457031 76.257812 C 461.4375 76.867188 461.40625 77.460938 461.363281 78.035156 C 461.320312 78.613281 461.269531 79.160156 461.207031 79.675781 C 461.148438 80.195312 461.078125 80.675781 461 81.113281 C 460.925781 81.554688 460.839844 81.949219 460.75 82.292969 C 460.65625 82.640625 460.5625 82.933594 460.460938 83.171875 C 460.359375 83.410156 460.253906 83.589844 460.148438 83.710938 C 460.042969 83.832031 459.933594 83.894531 459.824219 83.894531 C 459.714844 83.894531 459.605469 83.832031 459.5 83.710938 C 459.390625 83.589844 459.285156 83.410156 459.1875 83.171875 C 459.085938 82.933594 458.988281 82.640625 458.898438 82.292969 C 458.808594 81.949219 458.722656 81.554688 458.644531 81.113281 C 458.566406 80.675781 458.5 80.195312 458.4375 79.675781 C 458.378906 79.160156 458.328125 78.613281 458.285156 78.035156 C 458.242188 77.460938 458.210938 76.867188 458.191406 76.257812 C 458.167969 75.648438 458.15625 75.03125 458.15625 74.40625 C 458.15625 73.785156 458.167969 73.167969 458.191406 72.554688 C 458.210938 71.945312 458.242188 71.351562 458.285156 70.777344 C 458.328125 70.203125 458.378906 69.65625 458.4375 69.136719 C 458.5 68.621094 458.566406 68.140625 458.644531 67.699219 C 458.722656 67.257812 458.808594 66.867188 458.898438 66.519531 C 458.988281 66.175781 459.085938 65.882812 459.1875 65.644531 C 459.285156 65.40625 459.390625 65.226562 459.5 65.105469 C 459.605469 64.980469 459.714844 64.921875 459.824219 64.921875 C 459.933594 64.921875 460.042969 64.980469 460.148438 65.105469 C 460.253906 65.226562 460.359375 65.40625 460.460938 65.644531 C 460.5625 65.882812 460.65625 66.175781 460.75 66.519531 C 460.839844 66.867188 460.925781 67.257812 461 67.699219 C 461.078125 68.140625 461.148438 68.621094 461.207031 69.136719 C 461.269531 69.65625 461.320312 70.203125 461.363281 70.777344 C 461.40625 71.351562 461.4375 71.945312 461.457031 72.554688 C 461.480469 73.167969 461.488281 73.785156 461.488281 74.40625 Z M 461.488281 74.40625 " fill-opacity="1" fill-rule="nonzero"/><path fill="#ee952d" d="M 98.09375 463.636719 L 211.429688 463.636719 L 211.429688 457.25 L 98.09375 457.25 Z M 98.941406 458.097656 L 108.40625 458.097656 L 108.40625 462.785156 L 98.941406 462.785156 Z M 109.160156 458.097656 C 112.3125 458.097656 115.46875 458.097656 118.625 458.097656 C 118.625 459.660156 118.625 461.222656 118.625 462.785156 C 115.46875 462.785156 112.3125 462.785156 109.160156 462.785156 C 109.160156 461.222656 109.160156 459.660156 109.160156 458.097656 Z M 119.375 458.097656 C 122.53125 458.097656 125.6875 458.097656 128.84375 458.097656 C 128.84375 459.660156 128.84375 461.222656 128.84375 462.785156 C 125.6875 462.785156 122.53125 462.785156 119.375 462.785156 C 119.375 461.222656 119.375 459.660156 119.375 458.097656 Z M 129.59375 458.097656 C 132.75 458.097656 135.90625 458.097656 139.058594 458.097656 C 139.058594 459.660156 139.058594 461.222656 139.058594 462.785156 C 135.90625 462.785156 132.75 462.785156 129.59375 462.785156 C 129.59375 461.222656 129.59375 459.660156 129.59375 458.097656 Z M 139.8125 458.097656 C 142.964844 458.097656 146.121094 458.097656 149.277344 458.097656 C 149.277344 459.660156 149.277344 461.222656 149.277344 462.785156 C 146.121094 462.785156 142.964844 462.785156 139.8125 462.785156 C 139.8125 461.222656 139.8125 459.660156 139.8125 458.097656 Z M 150.027344 458.097656 C 153.183594 458.097656 156.339844 458.097656 159.496094 458.097656 C 159.496094 459.660156 159.496094 461.222656 159.496094 462.785156 C 156.339844 462.785156 153.183594 462.785156 150.027344 462.785156 C 150.027344 461.222656 150.027344 459.660156 150.027344 458.097656 Z M 160.246094 458.097656 C 163.402344 458.097656 166.558594 458.097656 169.710938 458.097656 C 169.710938 459.660156 169.710938 461.222656 169.710938 462.785156 C 166.558594 462.785156 163.402344 462.785156 160.246094 462.785156 C 160.246094 461.222656 160.246094 459.660156 160.246094 458.097656 Z M 170.464844 458.097656 C 173.617188 458.097656 176.773438 458.097656 179.929688 458.097656 C 179.929688 459.660156 179.929688 461.222656 179.929688 462.785156 C 176.773438 462.785156 173.617188 462.785156 170.464844 462.785156 C 170.464844 461.222656 170.464844 459.660156 170.464844 458.097656 Z M 180.679688 458.097656 C 183.835938 458.097656 186.992188 458.097656 190.148438 458.097656 C 190.148438 459.660156 190.148438 461.222656 190.148438 462.785156 C 186.992188 462.785156 183.835938 462.785156 180.679688 462.785156 C 180.679688 461.222656 180.679688 459.660156 180.679688 458.097656 Z M 190.898438 458.097656 C 194.054688 458.097656 197.210938 458.097656 200.367188 458.097656 C 200.367188 459.660156 200.367188 461.222656 200.367188 462.785156 C 197.210938 462.785156 194.054688 462.785156 190.898438 462.785156 C 190.898438 461.222656 190.898438 459.660156 190.898438 458.097656 Z M 201.117188 458.097656 L 210.582031 458.097656 L 210.582031 462.785156 L 201.117188 462.785156 Z M 201.117188 458.097656 " fill-opacity="1" fill-rule="evenodd"/><path fill="#8bc4c4" d="M 165.660156 62.355469 L 175.613281 62.355469 C 177.179688 62.355469 178.464844 63.636719 178.464844 65.203125 L 178.464844 75.15625 C 178.464844 76.722656 177.179688 78.007812 175.613281 78.007812 L 165.660156 78.007812 C 164.089844 78.007812 162.808594 76.722656 162.808594 75.15625 L 162.808594 65.203125 C 162.808594 63.636719 164.089844 62.355469 165.660156 62.355469 Z M 165.660156 62.355469 " fill-opacity="1" fill-rule="evenodd"/><path fill="#c1e4e6" d="M 165.660156 62.355469 L 175.613281 62.355469 C 177.179688 62.355469 178.464844 63.636719 178.464844 65.207031 L 178.464844 72.945312 C 173 72.109375 167.699219 71.097656 162.808594 69.863281 L 162.808594 65.207031 C 162.808594 63.636719 164.089844 62.355469 165.660156 62.355469 Z M 165.660156 62.355469 " fill-opacity="1" fill-rule="evenodd"/><path fill="#ffffff" d="M 175.226562 63.328125 L 176.757812 63.363281 L 177.664062 75.96875 Z M 175.226562 63.328125 " fill-opacity="1" fill-rule="evenodd"/><path fill="#212121" d="M 6.277344 75.390625 L 11.390625 75.390625 L 11.390625 91.585938 L 6.277344 91.585938 Z M 6.277344 75.390625 " fill-opacity="1" fill-rule="evenodd"/><path fill="#37535f" d="M 7.371094 76.484375 L 10.300781 76.484375 L 10.300781 90.492188 L 7.371094 90.492188 Z M 7.371094 76.484375 " fill-opacity="1" fill-rule="evenodd"/><path fill="#212121" d="M 10.300781 75.390625 L 15.414062 75.390625 L 15.414062 91.585938 L 10.300781 91.585938 Z M 10.300781 75.390625 " fill-opacity="1" fill-rule="evenodd"/><path fill="#37535f" d="M 11.390625 76.484375 L 14.320312 76.484375 L 14.320312 90.492188 L 11.390625 90.492188 Z M 11.390625 76.484375 " fill-opacity="1" fill-rule="evenodd"/><path fill="#212121" d="M 18.34375 75.390625 L 23.457031 75.390625 L 23.457031 91.585938 L 18.34375 91.585938 Z M 18.34375 75.390625 " fill-opacity="1" fill-rule="evenodd"/><path fill="#37535f" d="M 19.4375 76.484375 L 22.367188 76.484375 L 22.367188 90.492188 L 19.4375 90.492188 Z M 19.4375 76.484375 " fill-opacity="1" fill-rule="evenodd"/><path fill="#212121" d="M 14.320312 75.390625 L 19.4375 75.390625 L 19.4375 91.585938 L 14.320312 91.585938 Z M 14.320312 75.390625 " fill-opacity="1" fill-rule="evenodd"/><path fill="#37535f" d="M 15.414062 76.484375 L 18.34375 76.484375 L 18.34375 90.492188 L 15.414062 90.492188 Z M 15.414062 76.484375 " fill-opacity="1" fill-rule="evenodd"/><path fill="#212121" d="M 22.367188 75.390625 L 27.480469 75.390625 L 27.480469 91.585938 L 22.367188 91.585938 Z M 22.367188 75.390625 " fill-opacity="1" fill-rule="evenodd"/><path fill="#37535f" d="M 23.457031 76.484375 L 26.386719 76.484375 L 26.386719 90.492188 L 23.457031 90.492188 Z M 23.457031 76.484375 " fill-opacity="1" fill-rule="evenodd"/><path fill="#212121" d="M 6.277344 90.488281 L 11.390625 90.488281 L 11.390625 106.683594 L 6.277344 106.683594 Z M 6.277344 90.488281 " fill-opacity="1" fill-rule="evenodd"/><path fill="#37535f" d="M 7.371094 91.578125 L 10.300781 91.578125 L 10.300781 105.589844 L 7.371094 105.589844 Z M 7.371094 91.578125 " fill-opacity="1" fill-rule="evenodd"/><path fill="#212121" d="M 10.300781 90.488281 L 15.414062 90.488281 L 15.414062 106.683594 L 10.300781 106.683594 Z M 10.300781 90.488281 " fill-opacity="1" fill-rule="evenodd"/><path fill="#37535f" d="M 11.390625 91.578125 L 14.320312 91.578125 L 14.320312 105.589844 L 11.390625 105.589844 Z M 11.390625 91.578125 " fill-opacity="1" fill-rule="evenodd"/><path fill="#212121" d="M 18.34375 90.488281 L 23.457031 90.488281 L 23.457031 106.683594 L 18.34375 106.683594 Z M 18.34375 90.488281 " fill-opacity="1" fill-rule="evenodd"/><path fill="#37535f" d="M 19.4375 91.578125 L 22.367188 91.578125 L 22.367188 105.589844 L 19.4375 105.589844 Z M 19.4375 91.578125 " fill-opacity="1" fill-rule="evenodd"/><path fill="#212121" d="M 14.320312 90.488281 L 19.4375 90.488281 L 19.4375 106.683594 L 14.320312 106.683594 Z M 14.320312 90.488281 " fill-opacity="1" fill-rule="evenodd"/><path fill="#37535f" d="M 15.414062 91.578125 L 18.34375 91.578125 L 18.34375 105.589844 L 15.414062 105.589844 Z M 15.414062 91.578125 " fill-opacity="1" fill-rule="evenodd"/><path fill="#212121" d="M 22.367188 90.488281 L 27.480469 90.488281 L 27.480469 106.683594 L 22.367188 106.683594 Z M 22.367188 90.488281 " fill-opacity="1" fill-rule="evenodd"/><path fill="#37535f" d="M 23.457031 91.578125 L 26.386719 91.578125 L 26.386719 105.589844 L 23.457031 105.589844 Z M 23.457031 91.578125 " fill-opacity="1" fill-rule="evenodd"/><path fill="#212121" d="M 6.277344 105.613281 L 11.390625 105.613281 L 11.390625 121.808594 L 6.277344 121.808594 Z M 6.277344 105.613281 " fill-opacity="1" fill-rule="evenodd"/><path fill="#37535f" d="M 7.371094 106.707031 L 10.300781 106.707031 L 10.300781 120.714844 L 7.371094 120.714844 Z M 7.371094 106.707031 " fill-opacity="1" fill-rule="evenodd"/><path fill="#212121" d="M 10.300781 105.613281 L 15.414062 105.613281 L 15.414062 121.808594 L 10.300781 121.808594 Z M 10.300781 105.613281 " fill-opacity="1" fill-rule="evenodd"/><path fill="#37535f" d="M 11.390625 106.707031 L 14.320312 106.707031 L 14.320312 120.714844 L 11.390625 120.714844 Z M 11.390625 106.707031 " fill-opacity="1" fill-rule="evenodd"/><path fill="#212121" d="M 18.34375 105.613281 L 23.457031 105.613281 L 23.457031 121.808594 L 18.34375 121.808594 Z M 18.34375 105.613281 " fill-opacity="1" fill-rule="evenodd"/><path fill="#37535f" d="M 19.4375 106.707031 L 22.367188 106.707031 L 22.367188 120.714844 L 19.4375 120.714844 Z M 19.4375 106.707031 " fill-opacity="1" fill-rule="evenodd"/><path fill="#212121" d="M 14.320312 105.613281 L 19.4375 105.613281 L 19.4375 121.808594 L 14.320312 121.808594 Z M 14.320312 105.613281 " fill-opacity="1" fill-rule="evenodd"/><path fill="#37535f" d="M 15.414062 106.707031 L 18.34375 106.707031 L 18.34375 120.714844 L 15.414062 120.714844 Z M 15.414062 106.707031 " fill-opacity="1" fill-rule="evenodd"/><path fill="#212121" d="M 22.367188 105.613281 L 27.480469 105.613281 L 27.480469 121.808594 L 22.367188 121.808594 Z M 22.367188 105.613281 " fill-opacity="1" fill-rule="evenodd"/><path fill="#37535f" d="M 23.457031 106.707031 L 26.386719 106.707031 L 26.386719 120.714844 L 23.457031 120.714844 Z M 23.457031 106.707031 " fill-opacity="1" fill-rule="evenodd"/><path fill="#d4701b" d="M 97.917969 465.691406 L 211.625 465.691406 L 211.625 468.003906 L 97.917969 468.003906 Z M 97.917969 465.691406 " fill-opacity="1" fill-rule="evenodd"/><path fill="#5c797f" d="M 122.265625 471.097656 L 187.277344 471.097656 L 187.277344 475.082031 L 122.265625 475.082031 Z M 122.265625 471.097656 " fill-opacity="1" fill-rule="evenodd"/></svg>