<svg xmlns="http://www.w3.org/2000/svg" xmlns:xlink="http://www.w3.org/1999/xlink" width="80" zoomAndPan="magnify" viewBox="0 0 60 29.25" height="39" preserveAspectRatio="xMidYMid meet" version="1.0"><defs><clipPath id="f91823b5a3"><path d="M 0.75 0 L 59.25 0 L 59.25 28.519531 L 0.75 28.519531 Z M 0.75 0 " clip-rule="nonzero"/></clipPath><clipPath id="b3c5eaa61b"><path d="M 0.75 0 L 59.25 0 L 59.25 28.519531 L 0.75 28.519531 Z M 0.75 0 " clip-rule="nonzero"/></clipPath></defs><g clip-path="url(#f91823b5a3)"><path fill="#ffffff" d="M 0.75 0 L 59.25 0 L 59.25 28.519531 L 0.75 28.519531 Z M 0.75 0 " fill-opacity="1" fill-rule="nonzero"/></g><path fill="#ffffff" d="M 31.242188 17.566406 L 39.964844 17.566406 C 40.117188 17.566406 40.242188 17.445312 40.242188 17.292969 L 40.242188 13.046875 C 40.242188 12.894531 40.117188 12.773438 39.964844 12.773438 L 31.242188 12.773438 C 31.089844 12.773438 30.964844 12.894531 30.964844 13.046875 L 30.964844 17.292969 C 30.964844 17.445312 31.089844 17.566406 31.242188 17.566406 " fill-opacity="1" fill-rule="nonzero"/><path fill="#ffffff" d="M 20.273438 17.566406 L 29 17.566406 C 29.152344 17.566406 29.273438 17.445312 29.273438 17.292969 L 29.273438 13.046875 C 29.273438 12.894531 29.152344 12.773438 29 12.773438 L 20.273438 12.773438 C 20.125 12.773438 20 12.894531 20 13.046875 L 20 17.292969 C 20 17.445312 20.125 17.566406 20.273438 17.566406 " fill-opacity="1" fill-rule="nonzero"/><path fill="#ffffff" d="M 9.308594 17.566406 L 18.035156 17.566406 C 18.1875 17.566406 18.308594 17.445312 18.308594 17.292969 L 18.308594 13.046875 C 18.308594 12.894531 18.1875 12.773438 18.035156 12.773438 L 9.308594 12.773438 C 9.15625 12.773438 9.035156 12.894531 9.035156 13.046875 L 9.035156 17.292969 C 9.035156 17.445312 9.15625 17.566406 9.308594 17.566406 " fill-opacity="1" fill-rule="nonzero"/><path fill="#ffffff" d="M 31.242188 11.199219 L 39.964844 11.199219 C 40.117188 11.199219 40.242188 11.078125 40.242188 10.925781 L 40.242188 6.679688 C 40.242188 6.527344 40.117188 6.40625 39.964844 6.40625 L 31.242188 6.40625 C 31.089844 6.40625 30.964844 6.527344 30.964844 6.679688 L 30.964844 10.925781 C 30.964844 11.078125 31.089844 11.199219 31.242188 11.199219 " fill-opacity="1" fill-rule="nonzero"/><path fill="#ffffff" d="M 20.273438 11.199219 L 29 11.199219 C 29.152344 11.199219 29.273438 11.078125 29.273438 10.925781 L 29.273438 6.679688 C 29.273438 6.527344 29.152344 6.40625 29 6.40625 L 20.273438 6.40625 C 20.125 6.40625 20 6.527344 20 6.679688 L 20 10.925781 C 20 11.078125 20.125 11.199219 20.273438 11.199219 " fill-opacity="1" fill-rule="nonzero"/><path fill="#ffffff" d="M 9.308594 11.199219 L 18.035156 11.199219 C 18.1875 11.199219 18.308594 11.078125 18.308594 10.925781 L 18.308594 6.679688 C 18.308594 6.527344 18.1875 6.40625 18.035156 6.40625 L 9.308594 6.40625 C 9.15625 6.40625 9.035156 6.527344 9.035156 6.679688 L 9.035156 10.925781 C 9.035156 11.078125 9.15625 11.199219 9.308594 11.199219 " fill-opacity="1" fill-rule="nonzero"/><g clip-path="url(#b3c5eaa61b)"><path fill="#ffffff" d="M 4.238281 21.96875 C 3.761719 21.96875 3.375 21.582031 3.375 21.105469 C 3.375 20.625 3.761719 20.238281 4.238281 20.238281 C 4.71875 20.238281 5.105469 20.625 5.105469 21.105469 C 5.105469 21.582031 4.71875 21.96875 4.238281 21.96875 Z M 59.027344 19.992188 C 59.027344 19.585938 58.695312 19.253906 58.289062 19.253906 L 54.714844 19.253906 L 54.714844 3.550781 C 54.714844 3.300781 54.507812 3.09375 54.257812 3.09375 L 54.195312 3.09375 L 54.195312 2.152344 C 54.195312 1.484375 54.738281 0.941406 55.40625 0.941406 L 55.867188 0.941406 C 55.921875 0.941406 55.960938 0.898438 55.960938 0.847656 L 55.960938 0.09375 C 55.960938 0.0429688 55.921875 0 55.867188 0 L 55.40625 0 C 54.214844 0 53.25 0.960938 53.25 2.152344 L 53.25 3.09375 C 53 3.09375 52.796875 3.300781 52.796875 3.550781 L 52.796875 13.554688 L 50.054688 13.554688 L 50.054688 11.363281 C 50.054688 11.105469 49.84375 10.894531 49.585938 10.894531 L 47.328125 10.894531 L 47.328125 6.21875 C 47.328125 4.90625 46.265625 3.839844 44.949219 3.839844 L 43.261719 3.839844 L 43.261719 10.867188 L 42.246094 10.867188 C 41.984375 10.867188 41.773438 11.078125 41.773438 11.335938 L 41.773438 13.691406 C 41.773438 13.953125 41.984375 14.160156 42.246094 14.160156 L 43.171875 14.160156 L 43.171875 19.25 L 1.121094 19.25 C 0.953125 19.25 0.855469 19.4375 0.949219 19.574219 L 4.976562 25.488281 C 6.230469 27.335938 8.320312 28.441406 10.554688 28.441406 C 19.207031 28.4375 41.445312 28.433594 53.011719 28.433594 C 56.476562 28.429688 59.019531 25.878906 59.027344 22.425781 C 59.03125 21.625 59.03125 20.824219 59.027344 19.992188 " fill-opacity="1" fill-rule="nonzero"/></g></svg>