<svg xmlns="http://www.w3.org/2000/svg" xmlns:xlink="http://www.w3.org/1999/xlink" width="121" zoomAndPan="magnify" viewBox="0 0 90.75 102.75" height="137" preserveAspectRatio="xMidYMid meet" version="1.0"><defs><clipPath id="133692e51c"><path d="M 3 0.015625 L 87 0.015625 L 87 81 L 3 81 Z M 3 0.015625 " clip-rule="nonzero"/></clipPath><clipPath id="0313ab1a54"><path d="M 0 76 L 90.5 76 L 90.5 90 L 0 90 Z M 0 76 " clip-rule="nonzero"/></clipPath><clipPath id="7388b1bc64"><path d="M 5 85 L 23 85 L 23 102.484375 L 5 102.484375 Z M 5 85 " clip-rule="nonzero"/></clipPath><clipPath id="77c0b3a90c"><path d="M 18 85 L 35 85 L 35 102.484375 L 18 102.484375 Z M 18 85 " clip-rule="nonzero"/></clipPath><clipPath id="03f8ea92fa"><path d="M 68 85 L 85 85 L 85 102.484375 L 68 102.484375 Z M 68 85 " clip-rule="nonzero"/></clipPath><clipPath id="b433cc540d"><path d="M 55 85 L 72 85 L 72 102.484375 L 55 102.484375 Z M 55 85 " clip-rule="nonzero"/></clipPath></defs><g clip-path="url(#133692e51c)"><path fill="#0087ff" d="M 85.179688 80.054688 L 4.960938 80.054688 C 3.96875 80.054688 3.167969 79.253906 3.167969 78.261719 L 3.167969 5.859375 C 3.167969 2.65625 5.773438 0.0507812 8.972656 0.0507812 L 81.167969 0.0507812 C 84.367188 0.0507812 86.972656 2.65625 86.972656 5.859375 L 86.972656 78.261719 C 86.972656 79.253906 86.171875 80.054688 85.179688 80.054688 Z M 6.757812 76.464844 L 83.382812 76.464844 L 83.382812 5.859375 C 83.382812 4.636719 82.386719 3.644531 81.167969 3.644531 L 8.972656 3.644531 C 7.753906 3.644531 6.757812 4.636719 6.757812 5.859375 Z M 6.757812 76.464844 " fill-opacity="1" fill-rule="nonzero"/></g><g clip-path="url(#0313ab1a54)"><path fill="#0087ff" d="M 86.761719 89.496094 L 3.378906 89.496094 C 1.515625 89.496094 0 87.984375 0 86.125 L 0 79.84375 C 0 77.980469 1.515625 76.464844 3.378906 76.464844 L 86.761719 76.464844 C 88.625 76.464844 90.136719 77.980469 90.136719 79.84375 L 90.136719 86.125 C 90.136719 87.984375 88.625 89.496094 86.761719 89.496094 Z M 3.59375 85.90625 L 86.546875 85.90625 L 86.546875 80.058594 L 3.59375 80.058594 Z M 86.761719 80.054688 L 86.78125 80.054688 Z M 86.761719 80.054688 " fill-opacity="1" fill-rule="nonzero"/></g><path fill="#0087ff" d="M 77.730469 80.054688 L 12.410156 80.054688 C 11.417969 80.054688 10.613281 79.253906 10.613281 78.261719 L 10.613281 11.886719 C 10.613281 10.894531 11.417969 10.089844 12.410156 10.089844 L 77.730469 10.089844 C 78.726562 10.089844 79.527344 10.894531 79.527344 11.886719 L 79.527344 78.261719 C 79.527344 79.253906 78.726562 80.054688 77.730469 80.054688 Z M 14.203125 76.464844 L 75.9375 76.464844 L 75.9375 13.683594 L 14.203125 13.683594 Z M 14.203125 76.464844 " fill-opacity="1" fill-rule="nonzero"/><path fill="#0087ff" d="M 13.046875 13.683594 L 4.960938 13.683594 C 3.96875 13.683594 3.167969 12.878906 3.167969 11.886719 C 3.167969 10.894531 3.96875 10.089844 4.960938 10.089844 L 13.046875 10.089844 C 14.039062 10.089844 14.84375 10.894531 14.84375 11.886719 C 14.84375 12.878906 14.042969 13.683594 13.046875 13.683594 Z M 13.046875 13.683594 " fill-opacity="1" fill-rule="nonzero"/><path fill="#0087ff" d="M 85.179688 13.683594 L 77.09375 13.683594 C 76.101562 13.683594 75.296875 12.878906 75.296875 11.886719 C 75.296875 10.894531 76.101562 10.089844 77.09375 10.089844 L 85.179688 10.089844 C 86.171875 10.089844 86.972656 10.894531 86.972656 11.886719 C 86.972656 12.878906 86.171875 13.683594 85.179688 13.683594 Z M 85.179688 13.683594 " fill-opacity="1" fill-rule="nonzero"/><g clip-path="url(#7388b1bc64)"><path fill="#0087ff" d="M 18.207031 102.121094 L 9.625 102.121094 C 7.523438 102.121094 5.8125 100.410156 5.8125 98.304688 L 5.8125 87.703125 C 5.8125 86.710938 6.613281 85.90625 7.605469 85.90625 L 20.226562 85.90625 C 21.21875 85.90625 22.023438 86.710938 22.023438 87.703125 L 22.023438 98.304688 C 22.023438 100.410156 20.3125 102.121094 18.207031 102.121094 Z M 9.402344 89.496094 L 9.402344 98.304688 C 9.402344 98.429688 9.503906 98.53125 9.625 98.53125 L 18.207031 98.53125 C 18.332031 98.53125 18.433594 98.429688 18.433594 98.304688 L 18.433594 89.496094 Z M 9.402344 89.496094 " fill-opacity="1" fill-rule="nonzero"/></g><g clip-path="url(#77c0b3a90c)"><path fill="#0087ff" d="M 30.832031 102.121094 L 22.25 102.121094 C 20.144531 102.121094 18.433594 100.410156 18.433594 98.304688 L 18.433594 87.703125 C 18.433594 86.710938 19.234375 85.90625 20.226562 85.90625 L 32.851562 85.90625 C 33.84375 85.90625 34.648438 86.710938 34.648438 87.703125 L 34.648438 98.304688 C 34.648438 100.410156 32.9375 102.121094 30.832031 102.121094 Z M 22.023438 89.496094 L 22.023438 98.304688 C 22.023438 98.429688 22.125 98.53125 22.25 98.53125 L 30.832031 98.53125 C 30.953125 98.53125 31.054688 98.429688 31.054688 98.304688 L 31.054688 89.496094 Z M 22.023438 89.496094 " fill-opacity="1" fill-rule="nonzero"/></g><g clip-path="url(#03f8ea92fa)"><path fill="#0087ff" d="M 80.515625 102.121094 L 71.929688 102.121094 C 69.828125 102.121094 68.117188 100.410156 68.117188 98.304688 L 68.117188 87.703125 C 68.117188 86.710938 68.921875 85.90625 69.914062 85.90625 L 82.535156 85.90625 C 83.527344 85.90625 84.328125 86.710938 84.328125 87.703125 L 84.328125 98.304688 C 84.328125 100.410156 82.617188 102.121094 80.515625 102.121094 Z M 71.707031 89.496094 L 71.707031 98.304688 C 71.707031 98.429688 71.808594 98.53125 71.929688 98.53125 L 80.515625 98.53125 C 80.636719 98.53125 80.738281 98.429688 80.738281 98.304688 L 80.738281 89.496094 Z M 71.707031 89.496094 " fill-opacity="1" fill-rule="nonzero"/></g><g clip-path="url(#b433cc540d)"><path fill="#0087ff" d="M 67.890625 102.121094 L 59.308594 102.121094 C 57.203125 102.121094 55.492188 100.410156 55.492188 98.304688 L 55.492188 87.703125 C 55.492188 86.710938 56.296875 85.90625 57.289062 85.90625 L 69.914062 85.90625 C 70.90625 85.90625 71.707031 86.710938 71.707031 87.703125 L 71.707031 98.304688 C 71.707031 100.410156 69.996094 102.121094 67.890625 102.121094 Z M 59.085938 89.496094 L 59.085938 98.304688 C 59.085938 98.429688 59.1875 98.53125 59.308594 98.53125 L 67.890625 98.53125 C 68.015625 98.53125 68.117188 98.429688 68.117188 98.304688 L 68.117188 89.496094 Z M 59.085938 89.496094 " fill-opacity="1" fill-rule="nonzero"/></g><path fill="#0087ff" d="M 42.191406 80.054688 L 22.253906 80.054688 C 19.675781 80.054688 17.578125 77.960938 17.578125 75.382812 L 17.578125 58.007812 C 17.578125 55.429688 19.675781 53.332031 22.253906 53.332031 L 42.191406 53.332031 C 44.769531 53.332031 46.867188 55.429688 46.867188 58.007812 L 46.867188 75.382812 C 46.867188 77.960938 44.769531 80.054688 42.191406 80.054688 Z M 22.253906 56.921875 C 21.65625 56.921875 21.167969 57.410156 21.167969 58.007812 L 21.167969 75.382812 C 21.167969 75.980469 21.65625 76.464844 22.253906 76.464844 L 42.191406 76.464844 C 42.789062 76.464844 43.273438 75.980469 43.273438 75.382812 L 43.273438 58.007812 C 43.273438 57.410156 42.789062 56.921875 42.191406 56.921875 Z M 22.253906 56.921875 " fill-opacity="1" fill-rule="nonzero"/><path fill="#0087ff" d="M 36.148438 66.433594 L 28.296875 66.433594 C 27.304688 66.433594 26.503906 65.628906 26.503906 64.636719 L 26.503906 55.128906 C 26.503906 54.136719 27.304688 53.332031 28.296875 53.332031 L 36.148438 53.332031 C 37.140625 53.332031 37.941406 54.136719 37.941406 55.128906 L 37.941406 64.636719 C 37.941406 65.628906 37.140625 66.433594 36.148438 66.433594 Z M 30.09375 62.839844 L 34.351562 62.839844 L 34.351562 56.921875 L 30.09375 56.921875 Z M 30.09375 62.839844 " fill-opacity="1" fill-rule="nonzero"/><path fill="#0087ff" d="M 56.527344 56.921875 L 36.589844 56.921875 C 34.011719 56.921875 31.914062 54.828125 31.914062 52.25 L 31.914062 34.875 C 31.914062 32.296875 34.011719 30.199219 36.589844 30.199219 L 56.527344 30.199219 C 59.101562 30.199219 61.199219 32.296875 61.199219 34.875 L 61.199219 52.25 C 61.199219 54.828125 59.101562 56.921875 56.527344 56.921875 Z M 36.589844 33.792969 C 35.992188 33.792969 35.503906 34.277344 35.503906 34.875 L 35.503906 52.25 C 35.503906 52.847656 35.992188 53.332031 36.589844 53.332031 L 56.527344 53.332031 C 57.121094 53.332031 57.609375 52.847656 57.609375 52.25 L 57.609375 34.875 C 57.609375 34.277344 57.121094 33.792969 56.527344 33.792969 Z M 36.589844 33.792969 " fill-opacity="1" fill-rule="nonzero"/><path fill="#0087ff" d="M 50.480469 43.300781 L 42.632812 43.300781 C 41.640625 43.300781 40.835938 42.496094 40.835938 41.503906 L 40.835938 31.996094 C 40.835938 31.003906 41.640625 30.199219 42.632812 30.199219 L 50.480469 30.199219 C 51.472656 30.199219 52.277344 31.003906 52.277344 31.996094 L 52.277344 41.503906 C 52.277344 42.496094 51.472656 43.300781 50.480469 43.300781 Z M 44.429688 39.707031 L 48.6875 39.707031 L 48.6875 33.792969 L 44.429688 33.792969 Z M 44.429688 39.707031 " fill-opacity="1" fill-rule="nonzero"/><path fill="#0087ff" d="M 67.886719 80.054688 L 47.949219 80.054688 C 45.371094 80.054688 43.273438 77.960938 43.273438 75.382812 L 43.273438 58.007812 C 43.273438 55.429688 45.371094 53.332031 47.949219 53.332031 L 67.886719 53.332031 C 70.464844 53.332031 72.558594 55.429688 72.558594 58.007812 L 72.558594 75.382812 C 72.558594 77.960938 70.464844 80.054688 67.886719 80.054688 Z M 47.949219 56.921875 C 47.351562 56.921875 46.867188 57.410156 46.867188 58.007812 L 46.867188 75.382812 C 46.867188 75.980469 47.351562 76.464844 47.949219 76.464844 L 67.886719 76.464844 C 68.484375 76.464844 68.96875 75.980469 68.96875 75.382812 L 68.96875 58.007812 C 68.96875 57.410156 68.484375 56.921875 67.886719 56.921875 Z M 47.949219 56.921875 " fill-opacity="1" fill-rule="nonzero"/><path fill="#0087ff" d="M 61.839844 66.433594 L 53.992188 66.433594 C 53 66.433594 52.199219 65.628906 52.199219 64.636719 L 52.199219 55.128906 C 52.199219 54.136719 53 53.332031 53.992188 53.332031 L 61.839844 53.332031 C 62.835938 53.332031 63.636719 54.136719 63.636719 55.128906 L 63.636719 64.636719 C 63.636719 65.628906 62.835938 66.433594 61.839844 66.433594 Z M 55.789062 62.839844 L 60.046875 62.839844 L 60.046875 56.921875 L 55.789062 56.921875 Z M 55.789062 62.839844 " fill-opacity="1" fill-rule="nonzero"/></svg>