<svg xmlns="http://www.w3.org/2000/svg" xmlns:xlink="http://www.w3.org/1999/xlink" width="120" zoomAndPan="magnify" viewBox="0 0 90 89.999999" height="120" preserveAspectRatio="xMidYMid meet" version="1.0"><path fill="#0087ff" d="M 70.039062 28.015625 L 67.234375 28.015625 L 67.234375 22.414062 C 67.234375 10.054688 57.183594 0 44.824219 0 C 32.464844 0 22.410156 10.054688 22.410156 22.414062 C 10.054688 22.414062 0 32.464844 0 44.824219 C 0 57.183594 10.054688 67.234375 22.410156 67.234375 L 36.417969 67.234375 L 36.417969 61.632812 L 22.410156 61.632812 C 13.140625 61.632812 5.601562 54.09375 5.601562 44.824219 C 5.601562 35.554688 13.140625 28.015625 22.410156 28.015625 L 25.214844 28.015625 C 26.761719 28.015625 28.015625 26.761719 28.015625 25.214844 L 28.015625 22.414062 C 28.015625 13.140625 35.554688 5.601562 44.824219 5.601562 C 54.09375 5.601562 61.632812 13.140625 61.632812 22.414062 L 61.632812 30.816406 C 61.632812 32.367188 62.886719 33.617188 64.433594 33.617188 L 70.039062 33.617188 C 77.761719 33.617188 84.046875 39.902344 84.046875 47.625 C 84.046875 55.347656 77.761719 61.632812 70.039062 61.632812 L 53.230469 61.632812 L 53.230469 67.234375 L 70.039062 67.234375 C 80.851562 67.234375 89.648438 58.4375 89.648438 47.625 C 89.648438 36.816406 80.851562 28.015625 70.039062 28.015625 Z M 70.039062 28.015625 " fill-opacity="1" fill-rule="nonzero"/><path fill="#0087ff" d="M 59.652344 55.210938 L 63.613281 51.25 L 46.804688 34.4375 C 45.710938 33.34375 43.9375 33.34375 42.84375 34.4375 L 26.035156 51.25 L 29.996094 55.210938 L 42.023438 43.183594 L 42.023438 89.648438 L 47.625 89.648438 L 47.625 43.183594 Z M 59.652344 55.210938 " fill-opacity="1" fill-rule="nonzero"/></svg>