<svg xmlns="http://www.w3.org/2000/svg" xmlns:xlink="http://www.w3.org/1999/xlink" width="308" zoomAndPan="magnify" viewBox="0 0 230.87999 231" height="308" preserveAspectRatio="xMidYMid meet" version="1.0"><defs><clipPath id="883f6cc10d"><path d="M 68 0.0585938 L 89 0.0585938 L 89 15 L 68 15 Z M 68 0.0585938 " clip-rule="nonzero"/></clipPath><clipPath id="86f0019fde"><path d="M 80 0.0585938 L 101 0.0585938 L 101 15 L 80 15 Z M 80 0.0585938 " clip-rule="nonzero"/></clipPath><clipPath id="9e4596d115"><path d="M 0 32 L 230.128906 32 L 230.128906 58 L 0 58 Z M 0 32 " clip-rule="nonzero"/></clipPath><clipPath id="4e6f6b610a"><path d="M 32 223 L 137 223 L 137 230.191406 L 32 230.191406 Z M 32 223 " clip-rule="nonzero"/></clipPath></defs><path fill="#edab37" d="M 71.910156 215.800781 C 70.988281 215.800781 70.066406 215.449219 69.367188 214.746094 C 67.960938 213.339844 67.960938 211.066406 69.367188 209.660156 L 94.535156 184.492188 C 95.9375 183.085938 98.210938 183.085938 99.617188 184.492188 C 101.023438 185.898438 101.023438 188.171875 99.617188 189.574219 L 74.449219 214.746094 C 73.75 215.449219 72.828125 215.800781 71.910156 215.800781 Z M 71.910156 215.800781 " fill-opacity="1" fill-rule="nonzero"/><path fill="#edab37" d="M 71.910156 190.636719 C 70.988281 190.636719 70.066406 190.285156 69.367188 189.582031 C 67.960938 188.175781 67.960938 185.90625 69.367188 184.5 L 94.535156 159.328125 C 95.9375 157.921875 98.210938 157.921875 99.617188 159.328125 C 101.023438 160.734375 101.023438 163.007812 99.617188 164.414062 L 74.449219 189.582031 C 73.75 190.285156 72.828125 190.636719 71.910156 190.636719 Z M 71.910156 190.636719 " fill-opacity="1" fill-rule="nonzero"/><path fill="#edab37" d="M 71.910156 165.464844 C 70.988281 165.464844 70.066406 165.113281 69.367188 164.414062 C 67.960938 163.007812 67.960938 160.734375 69.367188 159.328125 L 94.535156 134.15625 C 95.9375 132.75 98.210938 132.75 99.617188 134.15625 C 101.023438 135.5625 101.023438 137.835938 99.617188 139.242188 L 74.449219 164.414062 C 73.75 165.113281 72.828125 165.464844 71.910156 165.464844 Z M 71.910156 165.464844 " fill-opacity="1" fill-rule="nonzero"/><path fill="#edab37" d="M 71.910156 140.304688 C 70.988281 140.304688 70.066406 139.949219 69.367188 139.25 C 67.960938 137.84375 67.960938 135.570312 69.367188 134.164062 L 94.535156 108.996094 C 95.9375 107.589844 98.210938 107.589844 99.617188 108.996094 C 101.023438 110.398438 101.023438 112.671875 99.617188 114.078125 L 74.449219 139.25 C 73.75 139.949219 72.828125 140.304688 71.910156 140.304688 Z M 71.910156 140.304688 " fill-opacity="1" fill-rule="nonzero"/><path fill="#edab37" d="M 71.910156 115.140625 C 70.988281 115.140625 70.066406 114.789062 69.367188 114.085938 C 67.960938 112.679688 67.960938 110.40625 69.367188 109 L 94.535156 83.832031 C 95.9375 82.425781 98.210938 82.425781 99.617188 83.832031 C 101.023438 85.238281 101.023438 87.507812 99.617188 88.914062 L 74.449219 114.085938 C 73.75 114.789062 72.828125 115.140625 71.910156 115.140625 Z M 71.910156 115.140625 " fill-opacity="1" fill-rule="nonzero"/><path fill="#edab37" d="M 97.070312 215.800781 C 96.152344 215.800781 95.230469 215.449219 94.53125 214.746094 L 69.363281 189.574219 C 67.957031 188.171875 67.957031 185.898438 69.363281 184.492188 C 70.769531 183.085938 73.042969 183.085938 74.445312 184.492188 L 99.613281 209.660156 C 101.019531 211.066406 101.019531 213.339844 99.613281 214.746094 C 98.914062 215.449219 97.992188 215.800781 97.070312 215.800781 Z M 97.070312 215.800781 " fill-opacity="1" fill-rule="nonzero"/><path fill="#edab37" d="M 97.070312 190.636719 C 96.152344 190.636719 95.230469 190.285156 94.53125 189.582031 L 69.363281 164.414062 C 67.957031 163.007812 67.957031 160.734375 69.363281 159.328125 C 70.769531 157.921875 73.042969 157.921875 74.445312 159.328125 L 99.613281 184.5 C 101.019531 185.90625 101.019531 188.175781 99.613281 189.582031 C 98.914062 190.285156 97.992188 190.636719 97.070312 190.636719 Z M 97.070312 190.636719 " fill-opacity="1" fill-rule="nonzero"/><path fill="#edab37" d="M 97.070312 165.464844 C 96.152344 165.464844 95.230469 165.113281 94.53125 164.414062 L 69.363281 139.242188 C 67.957031 137.835938 67.957031 135.5625 69.363281 134.15625 C 70.769531 132.75 73.042969 132.75 74.445312 134.15625 L 99.613281 159.328125 C 101.019531 160.734375 101.019531 163.007812 99.613281 164.414062 C 98.914062 165.113281 97.992188 165.464844 97.070312 165.464844 Z M 97.070312 165.464844 " fill-opacity="1" fill-rule="nonzero"/><path fill="#edab37" d="M 97.070312 140.304688 C 96.152344 140.304688 95.230469 139.949219 94.53125 139.25 L 69.363281 114.078125 C 67.957031 112.671875 67.957031 110.398438 69.363281 108.996094 C 70.769531 107.589844 73.042969 107.589844 74.445312 108.996094 L 99.613281 134.164062 C 101.019531 135.570312 101.019531 137.84375 99.613281 139.25 C 98.914062 139.949219 97.992188 140.304688 97.070312 140.304688 Z M 97.070312 140.304688 " fill-opacity="1" fill-rule="nonzero"/><path fill="#edab37" d="M 97.070312 115.140625 C 96.152344 115.140625 95.230469 114.789062 94.53125 114.085938 L 69.363281 88.914062 C 67.957031 87.507812 67.957031 85.238281 69.363281 83.832031 C 70.769531 82.425781 73.042969 82.425781 74.445312 83.832031 L 99.613281 109 C 101.019531 110.40625 101.019531 112.679688 99.613281 114.085938 C 98.914062 114.789062 97.992188 115.140625 97.070312 115.140625 Z M 97.070312 115.140625 " fill-opacity="1" fill-rule="nonzero"/><path fill="#656d78" d="M 14.390625 39.621094 C 13.003906 39.621094 11.683594 38.816406 11.09375 37.464844 C 10.292969 35.644531 11.125 33.527344 12.945312 32.730469 L 70.464844 7.554688 C 72.296875 6.757812 74.410156 7.589844 75.203125 9.410156 C 76 11.230469 75.171875 13.351562 73.351562 14.140625 L 15.828125 39.320312 C 15.359375 39.523438 14.871094 39.621094 14.390625 39.621094 Z M 14.390625 39.621094 " fill-opacity="1" fill-rule="nonzero"/><path fill="#656d78" d="M 186.988281 39.621094 C 186.664062 39.621094 186.335938 39.578125 186.011719 39.488281 L 96.113281 14.308594 C 94.199219 13.777344 93.082031 11.789062 93.621094 9.878906 C 94.160156 7.96875 96.167969 6.851562 98.050781 7.386719 L 187.957031 32.566406 C 189.867188 33.097656 190.988281 35.085938 190.445312 36.996094 C 190 38.582031 188.554688 39.621094 186.988281 39.621094 Z M 186.988281 39.621094 " fill-opacity="1" fill-rule="nonzero"/><path fill="#edab37" d="M 71.910156 39.617188 C 70.988281 39.617188 70.066406 39.265625 69.367188 38.5625 C 67.960938 37.160156 67.960938 34.886719 69.367188 33.480469 L 94.535156 8.308594 C 95.9375 6.902344 98.210938 6.902344 99.617188 8.308594 C 101.023438 9.710938 101.023438 11.988281 99.617188 13.394531 L 74.449219 38.5625 C 73.75 39.265625 72.828125 39.617188 71.910156 39.617188 Z M 71.910156 39.617188 " fill-opacity="1" fill-rule="nonzero"/><path fill="#edab37" d="M 97.070312 39.617188 C 96.152344 39.617188 95.230469 39.265625 94.53125 38.5625 L 69.363281 13.394531 C 67.957031 11.988281 67.957031 9.710938 69.363281 8.308594 C 70.769531 6.902344 73.042969 6.902344 74.445312 8.308594 L 99.613281 33.480469 C 101.019531 34.886719 101.019531 37.160156 99.613281 38.5625 C 98.914062 39.265625 97.992188 39.617188 97.070312 39.617188 Z M 97.070312 39.617188 " fill-opacity="1" fill-rule="nonzero"/><path fill="#f6bb42" d="M 71.910156 39.621094 C 69.921875 39.621094 68.3125 38.011719 68.3125 36.023438 L 68.3125 10.847656 C 68.3125 8.859375 69.921875 7.25 71.910156 7.25 C 73.898438 7.25 75.503906 8.859375 75.503906 10.847656 L 75.503906 36.023438 C 75.503906 38.011719 73.898438 39.621094 71.910156 39.621094 Z M 71.910156 39.621094 " fill-opacity="1" fill-rule="nonzero"/><g clip-path="url(#883f6cc10d)"><path fill="#f6bb42" d="M 71.914062 14.441406 C 70.660156 14.441406 69.449219 13.789062 68.789062 12.632812 C 67.800781 10.90625 68.402344 8.707031 70.125 7.722656 L 82.726562 0.53125 C 84.457031 -0.445312 86.644531 0.148438 87.628906 1.871094 C 88.613281 3.597656 88.015625 5.796875 86.292969 6.78125 L 73.691406 13.972656 C 73.128906 14.289062 72.515625 14.441406 71.914062 14.441406 Z M 71.914062 14.441406 " fill-opacity="1" fill-rule="nonzero"/></g><g clip-path="url(#86f0019fde)"><path fill="#f6bb42" d="M 97.074219 14.441406 C 96.472656 14.441406 95.855469 14.289062 95.296875 13.96875 L 82.726562 6.777344 C 81.003906 5.792969 80.402344 3.589844 81.386719 1.871094 C 82.371094 0.152344 84.578125 -0.449219 86.292969 0.535156 L 98.863281 7.726562 C 100.585938 8.710938 101.183594 10.910156 100.199219 12.632812 C 99.539062 13.792969 98.324219 14.441406 97.074219 14.441406 Z M 97.074219 14.441406 " fill-opacity="1" fill-rule="nonzero"/></g><path fill="#f6bb42" d="M 97.078125 39.621094 C 95.089844 39.621094 93.484375 38.011719 93.484375 36.023438 L 93.484375 10.847656 C 93.484375 8.859375 95.089844 7.25 97.078125 7.25 C 99.066406 7.25 100.675781 8.859375 100.675781 10.847656 L 100.675781 36.023438 C 100.675781 38.011719 99.066406 39.621094 97.078125 39.621094 Z M 97.078125 39.621094 " fill-opacity="1" fill-rule="nonzero"/><path fill="#656d78" d="M 183.367188 161.863281 C 177.417969 161.863281 172.578125 157.023438 172.578125 151.074219 C 172.578125 149.085938 174.1875 147.480469 176.175781 147.480469 C 178.164062 147.480469 179.769531 149.085938 179.769531 151.074219 C 179.769531 153.0625 181.382812 154.671875 183.367188 154.671875 C 185.351562 154.671875 186.964844 153.0625 186.964844 151.074219 C 186.898438 149.773438 183.949219 145.789062 180.894531 142.890625 C 179.453125 141.527344 179.394531 139.25 180.761719 137.808594 C 182.121094 136.367188 184.40625 136.308594 185.84375 137.675781 C 187.792969 139.527344 194.15625 145.957031 194.15625 151.078125 C 194.15625 157.023438 189.316406 161.863281 183.367188 161.863281 Z M 183.367188 161.863281 " fill-opacity="1" fill-rule="nonzero"/><path fill="#656d78" d="M 183.367188 143.878906 C 181.378906 143.878906 179.769531 142.269531 179.769531 140.28125 L 179.769531 136.691406 C 179.769531 134.703125 181.378906 133.097656 183.367188 133.097656 C 185.355469 133.097656 186.964844 134.703125 186.964844 136.691406 L 186.964844 140.28125 C 186.964844 142.269531 185.355469 143.878906 183.367188 143.878906 Z M 183.367188 143.878906 " fill-opacity="1" fill-rule="nonzero"/><path fill="#656d78" d="M 183.367188 118.664062 C 181.378906 118.664062 179.769531 117.054688 179.769531 115.066406 L 179.769531 54.003906 C 179.769531 52.015625 181.378906 50.410156 183.367188 50.410156 C 185.355469 50.410156 186.964844 52.015625 186.964844 54.003906 L 186.964844 115.066406 C 186.964844 117.054688 185.355469 118.664062 183.367188 118.664062 Z M 183.367188 118.664062 " fill-opacity="1" fill-rule="nonzero"/><path fill="#656d78" d="M 28.769531 50.4375 C 30.746094 50.4375 32.367188 52.050781 32.367188 54.03125 L 32.367188 68.378906 C 32.367188 70.359375 30.746094 71.976562 28.769531 71.976562 L 7.195312 71.976562 C 5.21875 71.976562 3.597656 70.359375 3.597656 68.378906 L 3.597656 54.03125 C 3.597656 52.050781 5.21875 50.4375 7.195312 50.4375 Z M 28.769531 50.4375 " fill-opacity="1" fill-rule="nonzero"/><path fill="#5d9cec" d="M 104.28125 61.222656 L 104.28125 72.011719 L 79.109375 72.011719 L 79.109375 54.03125 L 97.089844 54.03125 Z M 104.28125 61.222656 " fill-opacity="1" fill-rule="nonzero"/><path fill="#f6bb42" d="M 79.109375 54.03125 L 79.109375 72.011719 L 104.28125 72.011719 L 104.28125 86.394531 L 64.726562 86.394531 L 64.726562 54.03125 Z M 79.109375 54.03125 " fill-opacity="1" fill-rule="nonzero"/><path fill="#f6bb42" d="M 204.964844 57.601562 C 204.042969 57.601562 203.121094 57.246094 202.421875 56.546875 L 184.441406 38.566406 C 183.035156 37.160156 183.035156 34.890625 184.441406 33.484375 C 185.847656 32.078125 188.121094 32.078125 189.527344 33.484375 L 207.503906 51.460938 C 208.910156 52.867188 208.910156 55.140625 207.503906 56.546875 C 206.804688 57.246094 205.882812 57.601562 204.964844 57.601562 Z M 204.964844 57.601562 " fill-opacity="1" fill-rule="nonzero"/><path fill="#f6bb42" d="M 183.390625 57.601562 C 182.46875 57.601562 181.546875 57.246094 180.847656 56.546875 L 162.867188 38.566406 C 161.460938 37.160156 161.460938 34.890625 162.867188 33.484375 C 164.273438 32.078125 166.546875 32.078125 167.953125 33.484375 L 185.929688 51.460938 C 187.335938 52.867188 187.335938 55.140625 185.929688 56.546875 C 185.230469 57.246094 184.308594 57.601562 183.390625 57.601562 Z M 183.390625 57.601562 " fill-opacity="1" fill-rule="nonzero"/><path fill="#f6bb42" d="M 161.8125 57.601562 C 160.894531 57.601562 159.972656 57.246094 159.273438 56.546875 L 141.292969 38.566406 C 139.886719 37.160156 139.886719 34.890625 141.292969 33.484375 C 142.699219 32.078125 144.972656 32.078125 146.378906 33.484375 L 164.355469 51.460938 C 165.761719 52.867188 165.761719 55.140625 164.355469 56.546875 C 163.65625 57.246094 162.734375 57.601562 161.8125 57.601562 Z M 161.8125 57.601562 " fill-opacity="1" fill-rule="nonzero"/><path fill="#f6bb42" d="M 140.238281 57.601562 C 139.320312 57.601562 138.398438 57.246094 137.695312 56.546875 L 119.71875 38.566406 C 118.3125 37.160156 118.3125 34.890625 119.71875 33.484375 C 121.125 32.078125 123.398438 32.078125 124.800781 33.484375 L 142.78125 51.460938 C 144.1875 52.867188 144.1875 55.140625 142.78125 56.546875 C 142.082031 57.246094 141.160156 57.601562 140.238281 57.601562 Z M 140.238281 57.601562 " fill-opacity="1" fill-rule="nonzero"/><path fill="#f6bb42" d="M 118.664062 57.601562 C 117.742188 57.601562 116.824219 57.246094 116.121094 56.546875 L 98.144531 38.566406 C 96.738281 37.160156 96.738281 34.890625 98.144531 33.484375 C 99.550781 32.078125 101.820312 32.078125 103.226562 33.484375 L 121.207031 51.460938 C 122.613281 52.867188 122.613281 55.140625 121.207031 56.546875 C 120.503906 57.246094 119.585938 57.601562 118.664062 57.601562 Z M 118.664062 57.601562 " fill-opacity="1" fill-rule="nonzero"/><path fill="#f6bb42" d="M 97.089844 57.601562 C 96.167969 57.601562 95.25 57.246094 94.546875 56.546875 L 76.570312 38.566406 C 75.164062 37.160156 75.164062 34.890625 76.570312 33.484375 C 77.976562 32.078125 80.246094 32.078125 81.652344 33.484375 L 99.632812 51.460938 C 101.039062 52.867188 101.039062 55.140625 99.632812 56.546875 C 98.929688 57.246094 98.011719 57.601562 97.089844 57.601562 Z M 97.089844 57.601562 " fill-opacity="1" fill-rule="nonzero"/><path fill="#f6bb42" d="M 75.515625 57.601562 C 74.59375 57.601562 73.675781 57.246094 72.972656 56.546875 L 54.992188 38.566406 C 53.589844 37.160156 53.589844 34.890625 54.992188 33.484375 C 56.398438 32.078125 58.671875 32.078125 60.078125 33.484375 L 78.058594 51.460938 C 79.464844 52.867188 79.464844 55.140625 78.058594 56.546875 C 77.355469 57.246094 76.4375 57.601562 75.515625 57.601562 Z M 75.515625 57.601562 " fill-opacity="1" fill-rule="nonzero"/><path fill="#f6bb42" d="M 53.941406 57.601562 C 53.019531 57.601562 52.097656 57.246094 51.398438 56.546875 L 33.417969 38.566406 C 32.011719 37.160156 32.011719 34.890625 33.417969 33.484375 C 34.824219 32.078125 37.097656 32.078125 38.503906 33.484375 L 56.484375 51.460938 C 57.886719 52.867188 57.886719 55.140625 56.484375 56.546875 C 55.78125 57.246094 54.859375 57.601562 53.941406 57.601562 Z M 53.941406 57.601562 " fill-opacity="1" fill-rule="nonzero"/><path fill="#f6bb42" d="M 32.367188 57.601562 C 31.445312 57.601562 30.523438 57.246094 29.824219 56.546875 L 11.84375 38.566406 C 10.4375 37.160156 10.4375 34.890625 11.84375 33.484375 C 13.25 32.078125 15.523438 32.078125 16.929688 33.484375 L 34.90625 51.460938 C 36.3125 52.867188 36.3125 55.140625 34.90625 56.546875 C 34.207031 57.246094 33.285156 57.601562 32.367188 57.601562 Z M 32.367188 57.601562 " fill-opacity="1" fill-rule="nonzero"/><g clip-path="url(#9e4596d115)"><path fill="#ffce54" d="M 229.855469 55.378906 C 230.21875 54.5 230.21875 53.507812 229.855469 52.628906 C 229.671875 52.1875 229.410156 51.792969 229.078125 51.460938 L 211.101562 33.484375 C 210.777344 33.160156 210.398438 32.929688 210.003906 32.757812 C 209.980469 32.746094 209.960938 32.722656 209.941406 32.710938 C 209.496094 32.527344 209.019531 32.429688 208.546875 32.429688 L 3.597656 32.429688 C 1.609375 32.429688 0.00390625 34.035156 0.00390625 36.023438 L 0.00390625 54.003906 C 0.00390625 55.992188 1.609375 57.601562 3.597656 57.601562 L 226.539062 57.601562 C 227.003906 57.601562 227.472656 57.507812 227.910156 57.324219 C 228.792969 56.957031 229.492188 56.257812 229.855469 55.378906 Z M 207.070312 39.621094 L 217.859375 50.410156 L 7.195312 50.410156 L 7.195312 39.621094 Z M 207.070312 39.621094 " fill-opacity="1" fill-rule="nonzero"/></g><path fill="#f6bb42" d="M 71.910156 215.800781 C 69.921875 215.800781 68.3125 214.191406 68.3125 212.203125 L 68.3125 86.378906 C 68.3125 84.390625 69.921875 82.785156 71.910156 82.785156 C 73.898438 82.785156 75.503906 84.390625 75.503906 86.378906 L 75.503906 212.203125 C 75.503906 214.191406 73.898438 215.800781 71.910156 215.800781 Z M 71.910156 215.800781 " fill-opacity="1" fill-rule="nonzero"/><path fill="#f6bb42" d="M 97.078125 215.800781 C 95.089844 215.800781 93.484375 214.191406 93.484375 212.203125 L 93.484375 86.378906 C 93.484375 84.390625 95.089844 82.785156 97.078125 82.785156 C 99.066406 82.785156 100.675781 84.390625 100.675781 86.378906 L 100.675781 212.203125 C 100.675781 214.191406 99.066406 215.800781 97.078125 215.800781 Z M 97.078125 215.800781 " fill-opacity="1" fill-rule="nonzero"/><path fill="#ffce54" d="M 194.152344 111.472656 L 172.582031 111.472656 C 170.59375 111.472656 168.988281 113.078125 168.988281 115.066406 L 168.988281 122.316406 C 168.988281 122.613281 169.023438 122.902344 169.09375 123.191406 L 172.695312 137.566406 C 173.09375 139.164062 174.53125 140.289062 176.183594 140.289062 L 190.550781 140.289062 C 192.203125 140.289062 193.636719 139.164062 194.039062 137.566406 L 197.640625 123.191406 C 197.714844 122.902344 197.746094 122.613281 197.746094 122.316406 L 197.746094 115.066406 C 197.746094 113.082031 196.140625 111.472656 194.152344 111.472656 Z M 194.152344 111.472656 " fill-opacity="1" fill-rule="nonzero"/><path fill="#ffce54" d="M 14.398438 54.003906 C 14.398438 55.976562 12.78125 57.601562 10.800781 57.601562 L 3.597656 57.601562 C 1.621094 57.601562 0.00390625 55.976562 0.00390625 54.003906 L 0.00390625 36.023438 C 0.00390625 34.046875 1.621094 32.429688 3.597656 32.429688 L 10.800781 32.429688 C 12.78125 32.429688 14.398438 34.046875 14.398438 36.023438 Z M 14.398438 54.003906 " fill-opacity="1" fill-rule="nonzero"/><path fill="#ffce54" d="M 10.800781 32.429688 L 14.398438 32.429688 L 14.398438 57.601562 L 10.800781 57.601562 Z M 10.800781 32.429688 " fill-opacity="1" fill-rule="nonzero"/><path fill="#ffce54" d="M 104.28125 89.992188 L 64.726562 89.992188 C 62.738281 89.992188 61.132812 88.382812 61.132812 86.394531 C 61.132812 84.40625 62.738281 82.800781 64.726562 82.800781 L 104.28125 82.800781 C 106.269531 82.800781 107.878906 84.40625 107.878906 86.394531 C 107.878906 88.382812 106.269531 89.992188 104.28125 89.992188 Z M 104.28125 89.992188 " fill-opacity="1" fill-rule="nonzero"/><path fill="#545c66" d="M 107.878906 212.210938 C 109.855469 212.210938 111.472656 213.828125 111.472656 215.808594 L 111.472656 223 C 111.472656 224.976562 109.855469 226.59375 107.878906 226.59375 L 61.132812 226.59375 C 59.152344 226.59375 57.535156 224.976562 57.535156 223 L 57.535156 215.808594 C 57.535156 213.828125 59.152344 212.210938 61.132812 212.210938 Z M 107.878906 212.210938 " fill-opacity="1" fill-rule="nonzero"/><g clip-path="url(#4e6f6b610a)"><path fill="#656d78" d="M 133.046875 230.191406 L 35.960938 230.191406 C 33.972656 230.191406 32.367188 228.582031 32.367188 226.59375 C 32.367188 224.605469 33.972656 223 35.960938 223 L 133.046875 223 C 135.035156 223 136.644531 224.605469 136.644531 226.59375 C 136.644531 228.582031 135.035156 230.191406 133.046875 230.191406 Z M 133.046875 230.191406 " fill-opacity="1" fill-rule="nonzero"/></g></svg>